<?xml version="1.0" encoding="UTF-8"?>
<svg id="Layer_1" data-name="Layer 1" xmlns="http://www.w3.org/2000/svg" xmlns:xlink="http://www.w3.org/1999/xlink" viewBox="0 0 1831.96 1791.13">
  <defs>
    <style>
      .cls-1 {
        fill: url(#linear-gradient);
      }

      .cls-2 {
        fill: #00b9f1;
      }

      .cls-3 {
        fill: #231f20;
      }

      .cls-4 {
        fill: url(#linear-gradient-8);
      }

      .cls-5 {
        fill: url(#linear-gradient-9);
      }

      .cls-6 {
        fill: url(#linear-gradient-3);
      }

      .cls-7 {
        fill: url(#linear-gradient-4);
      }

      .cls-8 {
        fill: url(#linear-gradient-2);
      }

      .cls-9 {
        fill: url(#linear-gradient-6);
      }

      .cls-10 {
        fill: url(#linear-gradient-7);
      }

      .cls-11 {
        fill: url(#linear-gradient-5);
      }

      .cls-12 {
        fill: url(#linear-gradient-14);
      }

      .cls-13 {
        fill: url(#linear-gradient-18);
      }

      .cls-14 {
        fill: url(#linear-gradient-22);
      }

      .cls-15 {
        fill: url(#linear-gradient-20);
      }

      .cls-16 {
        fill: url(#linear-gradient-21);
      }

      .cls-17 {
        fill: url(#linear-gradient-23);
      }

      .cls-18 {
        fill: url(#linear-gradient-15);
      }

      .cls-19 {
        fill: url(#linear-gradient-19);
      }

      .cls-20 {
        fill: url(#linear-gradient-16);
      }

      .cls-21 {
        fill: url(#linear-gradient-17);
      }

      .cls-22 {
        fill: url(#linear-gradient-13);
      }

      .cls-23 {
        fill: url(#linear-gradient-12);
      }

      .cls-24 {
        fill: url(#linear-gradient-10);
      }

      .cls-25 {
        fill: url(#linear-gradient-11);
      }

      .cls-26 {
        fill: url(#linear-gradient-27);
      }

      .cls-27 {
        fill: url(#linear-gradient-24);
      }

      .cls-28 {
        fill: url(#linear-gradient-26);
      }

      .cls-29 {
        fill: url(#linear-gradient-38);
      }

      .cls-30 {
        fill: url(#linear-gradient-35);
      }

      .cls-31 {
        fill: url(#linear-gradient-37);
      }

      .cls-32 {
        fill: url(#linear-gradient-34);
      }

      .cls-33 {
        fill: url(#linear-gradient-36);
      }

      .cls-34 {
        fill: url(#linear-gradient-25);
      }

      .cls-35 {
        fill: url(#linear-gradient-28);
      }

      .cls-36 {
        fill: url(#linear-gradient-29);
      }

      .cls-37 {
        fill: url(#linear-gradient-33);
      }

      .cls-38 {
        fill: url(#linear-gradient-30);
      }

      .cls-39 {
        fill: url(#linear-gradient-32);
      }

      .cls-40 {
        fill: url(#linear-gradient-31);
      }
    </style>
    <linearGradient id="linear-gradient" x1="28.46" y1="847.15" x2="458.17" y2="1095.24" gradientUnits="userSpaceOnUse">
      <stop offset=".43" stop-color="#01aa81"/>
      <stop offset=".83" stop-color="#fff" stop-opacity="0"/>
    </linearGradient>
    <linearGradient id="linear-gradient-2" x1="159.99" y1="422.84" x2="987.74" y2="1250.6" gradientUnits="userSpaceOnUse">
      <stop offset=".33" stop-color="#01aa81"/>
      <stop offset=".66" stop-color="#fff" stop-opacity="0"/>
    </linearGradient>
    <linearGradient id="linear-gradient-3" x1="683.93" y1="1308.64" x2="1030.65" y2="1108.47" gradientUnits="userSpaceOnUse">
      <stop offset="0" stop-color="#fed500"/>
      <stop offset=".12" stop-color="#fdce05"/>
      <stop offset=".28" stop-color="#fbbc14"/>
      <stop offset=".46" stop-color="#f9a12d"/>
      <stop offset=".52" stop-color="#f9a12c" stop-opacity=".98"/>
      <stop offset=".59" stop-color="#f9a22c" stop-opacity=".92"/>
      <stop offset=".66" stop-color="#f9a32b" stop-opacity=".82"/>
      <stop offset=".74" stop-color="#f9a62a" stop-opacity=".69"/>
      <stop offset=".82" stop-color="#f9a929" stop-opacity=".51"/>
      <stop offset=".9" stop-color="#faac27" stop-opacity=".3"/>
      <stop offset=".98" stop-color="#fab125" stop-opacity=".05"/>
      <stop offset="1" stop-color="#fbb225" stop-opacity="0"/>
    </linearGradient>
    <linearGradient id="linear-gradient-4" x1="490.67" y1="1599.21" x2="1251.8" y2="1159.77" xlink:href="#linear-gradient-3"/>
    <linearGradient id="linear-gradient-5" x1="795.44" y1="960.68" x2="925.54" y2="885.57" xlink:href="#linear-gradient-3"/>
    <linearGradient id="linear-gradient-6" x1="1095.91" y1="1170.42" x2="1293.63" y2="1056.26" xlink:href="#linear-gradient-3"/>
    <linearGradient id="linear-gradient-7" x1="489.57" y1="1170.56" x2="635.2" y2="1086.48" xlink:href="#linear-gradient-3"/>
    <linearGradient id="linear-gradient-8" x1="917.26" y1="1003.18" x2="1094.45" y2="900.88" xlink:href="#linear-gradient-3"/>
    <linearGradient id="linear-gradient-9" x1="1033.12" y1="1086.04" x2="1229.21" y2="972.83" xlink:href="#linear-gradient-3"/>
    <linearGradient id="linear-gradient-10" x1="683.94" y1="963.78" x2="763.25" y2="917.99" xlink:href="#linear-gradient-3"/>
    <linearGradient id="linear-gradient-11" x1="593.63" y1="1027.96" x2="683.2" y2="976.25" xlink:href="#linear-gradient-3"/>
    <linearGradient id="linear-gradient-12" x1="429.75" y1="1313.07" x2="616.57" y2="1205.21" xlink:href="#linear-gradient-3"/>
    <linearGradient id="linear-gradient-13" x1="1137.89" y1="1294.71" x2="1305.16" y2="1198.14" xlink:href="#linear-gradient-3"/>
    <linearGradient id="linear-gradient-14" x1="1039.46" y1="1571.35" x2="1039.46" y2="895.45" gradientUnits="userSpaceOnUse">
      <stop offset="0" stop-color="#fff" stop-opacity="0"/>
      <stop offset=".2" stop-color="#85ddf8" stop-opacity=".48"/>
      <stop offset=".37" stop-color="#25c2f3" stop-opacity=".85"/>
      <stop offset=".44" stop-color="#00b8f1"/>
      <stop offset=".71" stop-color="#155e98"/>
      <stop offset=".86" stop-color="#232763"/>
    </linearGradient>
    <linearGradient id="linear-gradient-15" x1="79.02" y1="1263.23" x2="79.02" y2="1538.21" gradientUnits="userSpaceOnUse">
      <stop offset="0" stop-color="#fff"/>
      <stop offset="1" stop-color="#231f20"/>
    </linearGradient>
    <linearGradient id="linear-gradient-16" x1="253.82" y1="1321.56" x2="253.82" xlink:href="#linear-gradient-15"/>
    <linearGradient id="linear-gradient-17" x1="415.81" y1="1321.56" x2="415.81" y2="1610.21" xlink:href="#linear-gradient-15"/>
    <linearGradient id="linear-gradient-18" x1="558.51" y1="1265.07" x2="558.51" y2="1536.37" xlink:href="#linear-gradient-15"/>
    <linearGradient id="linear-gradient-19" x1="701.2" y1="1321.56" x2="701.2" xlink:href="#linear-gradient-15"/>
    <linearGradient id="linear-gradient-20" x1="822.91" y1="1249.94" x2="822.91" y2="1536.37" xlink:href="#linear-gradient-15"/>
    <linearGradient id="linear-gradient-21" x1="944.61" y1="1321.56" x2="944.61" y2="1536.37" xlink:href="#linear-gradient-15"/>
    <linearGradient id="linear-gradient-22" x1="1103.67" y1="1321.56" x2="1103.67" xlink:href="#linear-gradient-15"/>
    <linearGradient id="linear-gradient-23" x1="96.43" y1="1520.8" x2="96.43" y2="1762.9" gradientUnits="userSpaceOnUse">
      <stop offset=".35" stop-color="#fff"/>
      <stop offset=".45" stop-color="#fbfbfb"/>
      <stop offset=".53" stop-color="#f0efef"/>
      <stop offset=".62" stop-color="#dddcdd"/>
      <stop offset=".7" stop-color="#c3c2c2"/>
      <stop offset=".78" stop-color="#a19fa0"/>
      <stop offset=".87" stop-color="#787576"/>
      <stop offset=".95" stop-color="#474445"/>
      <stop offset="1" stop-color="#231f20"/>
    </linearGradient>
    <linearGradient id="linear-gradient-24" x1="195.62" y1="1598.89" x2="195.62" y2="1725.94" xlink:href="#linear-gradient-23"/>
    <linearGradient id="linear-gradient-25" x1="315.02" y1="1550.08" x2="315.02" y2="1725.94" xlink:href="#linear-gradient-23"/>
    <linearGradient id="linear-gradient-26" x1="430.94" y1="1598.89" x2="430.94" y2="1725.94" xlink:href="#linear-gradient-23"/>
    <linearGradient id="linear-gradient-27" x1="506.24" y1="1549.73" x2="506.24" y2="1791.13" xlink:href="#linear-gradient-23"/>
    <linearGradient id="linear-gradient-28" x1="602.45" y1="1581.46" x2="602.45" y2="1725.94" xlink:href="#linear-gradient-23"/>
    <linearGradient id="linear-gradient-29" x1="698.5" y1="1598.89" x2="698.5" y2="1725.94" xlink:href="#linear-gradient-23"/>
    <linearGradient id="linear-gradient-30" x1="807.26" y1="1598.89" x2="807.26" y2="1726.29" xlink:href="#linear-gradient-23"/>
    <linearGradient id="linear-gradient-31" x1="904.01" y1="1549.73" x2="904.01" y2="1725.94" xlink:href="#linear-gradient-23"/>
    <linearGradient id="linear-gradient-32" x1="1113.35" y1="1521.15" x2="1113.35" y2="1743.38" xlink:href="#linear-gradient-23"/>
    <linearGradient id="linear-gradient-33" x1="1258.55" y1="1598.89" x2="1258.55" y2="1725.94" xlink:href="#linear-gradient-23"/>
    <linearGradient id="linear-gradient-34" x1="1364.36" y1="1598.89" x2="1364.36" y2="1726.29" xlink:href="#linear-gradient-23"/>
    <linearGradient id="linear-gradient-35" x1="1461.1" y1="1549.73" x2="1461.1" y2="1725.94" xlink:href="#linear-gradient-23"/>
    <linearGradient id="linear-gradient-36" x1="1549.65" y1="1598.89" x2="1549.65" y2="1725.94" xlink:href="#linear-gradient-23"/>
    <linearGradient id="linear-gradient-37" x1="1639.59" y1="1549.73" x2="1639.59" y2="1725.94" xlink:href="#linear-gradient-23"/>
    <linearGradient id="linear-gradient-38" x1="1708.09" y1="1598.89" x2="1708.09" y2="1725.94" xlink:href="#linear-gradient-23"/>
  </defs>
  <path class="cls-1" d="m199.28,1240.89c-7-4.47-14.41-3.98-21.34-1.97-9.94,2.89-18.42,8.51-23.72,17.8-1.4,2.46-2.66,4.09-5.68,4-10.4-.33-19.87,3.53-29.46,6.76-4.33,1.46-8.61,3.09-13.3,2.83-2.25-.13-5.14.4-5.85-2.33-.71-2.72,1.18-4.86,3.61-6.06,2.71-1.34,5.53-2.5,8.37-3.58,5.21-1.98,10.5-3.75,15.67-5.81,2.32-.92,5.06-1.74,5.99-4.36,1.6-4.5,4.16-9.66,1.76-13.84-2.11-3.67-7.02-.61-10.63-.45-6.07.28-12.12,1.41-18.16-.13-2.6-.66-5.07-2.04-4.92-4.98.18-3.56,3.3-3.07,5.8-3.22,10.85-.63,21.95-.13,31.75-6.07,2.69-1.63,5.86-2.95,7.13-6.73-11.3,0-22.35-.39-33.34.17-5.16.27-9.13,4.06-12.7,7.82-3.33,3.52-7.01,6.61-11.65,8.35-7.01,2.64-10.09.56-8.49-6.73,1.47-6.68.18-9.84-7.07-10.64-3.59-.39-7.03-2.74-10.4-4.49-2.02-1.05-2.81-2.97-1.53-5.15,1.17-2,3.09-1.77,4.64-.8,12.81,8.01,24.96,2.22,37.19-1.7,5.32-1.71,6.88-4.27,1.48-8.05-.62-.43-1.14-1.02-1.63-1.6-1.74-2.09-5.17-4.08-3.88-6.85,1.72-3.67,4.81.07,7.32.08,14.99.04,29.82,1.82,44.57,4.45,7.34,1.31,7.87-4.88,9.45-9.42,1.57-4.52,3.34-9.29-2.37-12.69-3.98-2.38-9.93-4.14-2.05-9.78,3.37-2.41-.28-4.93-2.87-5.89-4.67-1.72-8.43-4.62-11.91-7.99-1.04-1.01-2.75-1.85-2.23-3.65.6-2.09,2.62-2.16,4.35-2.28,8.65-.61,17.23.46,25.84,1.14,5.81.46,11.66.27,17.49.57,5.28.27,5.37-2.38,3.76-6.16-.3-.7-.8-1.31-1.05-2.02-1.12-3.15-5.61-6-2.85-9.35,2.03-2.46,5.49.93,8.42,1.23,2.3.23,4.85,1.19,6.3-1.01,1.68-2.54-.18-4.85-1.84-6.74-5.38-6.14-12.06-4.4-18.29-2.23-5.47,1.9-10.5,5.02-15.83,7.36-5.21,2.29-8.45,1.72-6.82-5.25.76-3.22,1.13-6.49-1.05-9.52-1.07-1.49-3.7-2.98-1.61-5.08,1.39-1.39,3.3.37,4.87.92,15.47,5.43,17.97,4.75,26.94-8.98,3.8-5.81,8.04-11.02,13.81-14.97,1.41-.97,4.57-1.73,3.06-4.26-1.31-2.19-3.69-.31-5.55.17-3.68.95-7.28,2.29-11,3-7.92,1.53-10.39-.05-11.1-8.03-.58-6.53-3.25-7.29-8.32-4.35-4.39,2.54-8.92,4.87-13.12,7.69-5.78,3.89-10.57,3.45-13.89-2.85-2.18-4.13-4.3-4.29-8.39-2.34-5.91,2.81-12.26,4.81-18.58,6.59-2.14.6-5.53,1.47-6.99-1.12-1.58-2.8.23-5.71,2.51-7.3,6.54-4.58,3.9-6.53-1.78-8.66-3.81-1.43-9.81-2.85-8.41-7.92,1.2-4.38,7.02-2.81,10.9-2.49,7.58.63,15.2,1.31,22.66,2.7,6.28,1.17,8.34-1.06,8.26-7.07-.22-17.54,2.91-20.69,21.1-21.37,5.32-.2,10.66.16,15.99.23,3.64.05,7.13-.59,10-2.98,5.33-4.42,4.78-9.59-1.58-12.09-5.98-2.34-11.17-4.98-11.74-12.31-.29-3.67-2.92-3.46-5.58-3.3-8.61.51-17.23,1.34-25.84,1.24-4.48-.05-11.79.41-12.18-4.53-.37-4.68,6.91-4.53,11.15-5.48,7.16-1.61,14.41-2.93,21.68-4,4.58-.67,5.69-2.39,4.5-7.02-2.77-10.75-2.51-10.81,8.85-10.58,11.12.23,12.72-1.35,10.07-12.35-1.64-6.82-.18-10.36,6.9-12.22,5.04-1.33,9.79-4.49,7.15-11.06-2.47-6.13-7.52-5.98-12.8-3.96-9.8,3.75-17.96,10.42-27.13,15.31-5.83,3.11-11.6,6.12-18.71,4.99-4.39-.7-5.48-2.37-2.56-5.65,3.02-3.4,6.54-6.34,9.77-9.55,1.37-1.36,3.9-2.43,3.07-4.73-.76-2.12-3.34-1.94-5.32-2.28-5.72-.99-11.72-1.1-16.53-5.02-1.46-1.19-4.23-1.86-3.27-4.41.75-1.97,2.99-2.74,5.11-2.64,6.33.27,12.71.32,18.97,1.18,5.11.7,7.51-.9,6.87-5.94-1.14-8.97,3.03-12.44,11.59-13.95,14.01-2.47,24.63-10.62,33.02-23.29-24.89,7.7-49.24,7.81-73.82,4.49-6.09-.82-10.5-3.34-10.04-9.95.51-7.3,6.24-7.56,11.87-7.35,8.36.31,16.65,1.41,25.09.61,5.53-.53,8.41-2.68,8.89-8.22.31-3.54,1.06-7.03,1.37-10.57,1.05-12.08,10.12-20.77,21.86-18.72,9.99,1.74,14.63-2.61,18.18-10.57,2.26-5.06,8.02-11.16,5.6-14.96-2.63-4.13-9.51,1.22-14.65,1.47-2.73.14-5.83,1.38-8.03-.88-5.37-5.52-11.81-4.85-18.48-3.96-11.45,1.53-22.35.31-31.54-7.56-2.2-1.88-5.89-3.86-4-7.26,1.59-2.87,4.99-1.17,7.61-.37,3.15.95,6.28,1.99,9.44,2.91.96.28,2.38.78,2.94.34,8.18-6.38,18.61-5.93,27.65-9.41,6.33-2.43,6.74-9.64,7.24-15.78.39-4.84,1.42-7.85,7.43-5.42,3.68,1.48,7.79.72,10.1-3.07,2.5-4.11-.72-6.64-3.43-8.9-4.98-4.15-4.25-7,1.68-8.99,2.35-.79,5.89-1.32,4.11-4.71-1.42-2.7-4.48-1.19-6.79-.08-10.73,5.16-21.49,10.29-32.17,15.54-4.94,2.43-11.57,5.5-14.32.25-2.21-4.21,4.85-7.29,8.84-9.58,5.69-3.27,11.55-6.49,17.7-8.68,5.03-1.78,5.37-3.93,3.69-8.45-4.38-11.81-1.97-14.89,10.86-14.75,3.04.03,6.09.33,9.12.27,3.22-.07,5.91-1.21,7.26-4.51,1.44-3.5.93-7.02-1.97-8.95-5.7-3.8-4.67-7.76-2.14-12.92,3.11-6.35,5.48-13.08,7.89-19.75,2.75-7.58,1.77-8.93-6.53-8.39-6.14.4-12.21.38-18.16-1.05-1.95-.47-5.03-.33-5.17-3.45-.11-2.39,1.96-3.74,3.91-4.09,15.11-2.73,20.79-14.73,26.61-26.65.44-.91.98-1.78,1.47-2.66q4.49-8.04-4.18-11.16c-.24-.09-.49-.14-.72-.24-3.9-1.71-9.84-2.56-10.38-6.64-.55-4.14,5.52-4.96,8.88-6.74,6.14-3.25,9.33-7.32,9.41-14.86.19-16.49,1.46-32.96,2.4-49.43.12-2.08-.94-5.53,1.98-5.76,2.91-.23,4.99,2.79,5.49,5.51,1.36,7.48,2.59,15.02,3.16,22.59,1.14,15.3,5.93,29.29,14.27,42.04,2.52,3.85,1.81,5.9-2.17,7.54-1.4.57-2.69,1.43-3.97,2.24-2.47,1.54-6.48,1.86-6.34,5.71.15,4.01,3.73,5.73,6.77,7.55,3.77,2.26,8.63,2.67,11.72,6.41-1.93,2.53-4.53,2.82-6.93,3.39-2.91.69-6.4.5-7.14,4.4-.77,4.05.36,7.53,3.96,9.96,8.61,5.82,17.24,11.62,25.78,17.54,1.52,1.05,4.36,1.24,3.94,3.96-.53,3.35-3.56,2-5.57,2.45-9.12,2.03-18.78,1.34-27.45,5.61-2.01.99-4.69,1.43-4.87,4.2-.17,2.7,2.19,3.74,4.15,4.94,5.19,3.18,10.26,6.58,15.56,9.57,5.71,3.21,4.95,6.35.26,9.58-4.02,2.77-9.58,4.45-3.93,11.07,2.28,2.67-1.05,5.16-3.26,6.7-5.47,3.83-3.57,6.49.8,9.59,7.78,5.51,16.33,6.5,25.4,5.08,2.79-.44,6.58-1.47,7.36,1.69.94,3.84-2.8,5.44-6.14,6.35-1.46.4-3.01.5-4.43,1-1.48.52-2.86,1.56-2.67,3.3.22,1.96,2.07,1.93,3.55,2.11,7.3.88,14.62,1.66,21.91,2.64,2.24.3,4.45.99,6.6,1.72,1.68.57,3.5,1.41,3.35,3.59-.18,2.55-2.35,3.47-4.35,3.37-6.58-.31-13.13-1.01-19.7-1.51-4.54-.35-9.12-1.05-13.64-.81-7.23.38-9.96,4.69-8.85,11.94,1.88,12.24,20.72,28.25,39.31,22.52,4.1-1.27,8.36-2.02,12.56-2.99,5.89-1.36,10.88-.94,14.22,5.3,2.98,5.56,9.32,4.26,14.25,5.81,2.14.67,5.46.97,5.56,3.09.14,3.02-3.29,3.19-5.68,3.57-5.75.91-11.51,2.03-17.31,2.38-11.95.73-18.02,9.28-24.39,17.56-1.3,1.69-.62,3.24.07,4.97,3.29,8.26-4.89,18.42-13.93,17.62-9.04-.8-18.08-1.01-27.79,2.81,5.95,3.9,10.93,7.17,15.9,10.45,6.03,3.98,8.56,9.24,7.9,16.76-.99,11.39.88,13.66,11.96,16.48,15.33,3.9,30.96,5.22,46.78,5.21,4.57,0,6.15-2.47,7.65-5.88,1.81-4.12,4.95-4.97,7.36-1.13,3.53,5.63,6.78,3.49,10.63.84,2.82-1.95,5.93-5.38,9.4-2.71,3.13,2.41,1.99,6.57.92,9.99-1.89,6.03-1.82,12.06.1,17.96,1.82,5.57-.57,6.91-5.51,6.39-4.03-.43-8.07-.86-12.11-1.15-4.85-.36-6.74,1.74-4.75,6.41,2.45,5.75,5.07,11.43,8.06,18.13-8.24-1.43-15.71-2.32-23.24-.47-2.69.66-3.88-1.78-3.93-4.41-.05-2.54-.08-5.08-.21-7.62-.45-9.15-1.37-9.73-10.45-9.51-5.45.13-8.01,2.22-7.73,7.76.14,2.78.04,5.59-.14,8.37-.16,2.44-1.04,4.8-3.93,4.67-4.74-.21-8.9.77-12.91,3.48-2.75,1.86-3.94-.23-4.47-2.92-.8-3.97-1.73-7.92-2.8-11.83-2.49-9.13-10.37-12.13-18.02-14.72-4.25-1.44-3.48,2.95-2.88,4.93,1.91,6.36.29,8.29-6.49,7.28-9.89-1.48-10.9.21-7.86,10.01,2.25,7.26,4.75,14.5,6.23,21.92,1.53,7.7,5.78,10.55,13.22,10.29,12.18-.42,22.18,3.99,30.35,14.84-9.76.59-18.69,1-27.59,1.72-4.42.35-10.71-.39-12.02,4.2-1.07,3.75,4.27,6.98,7.4,9.85,12.47,11.41,26.81,18.12,44.14,16.73,3.98-.32,7.51-.47,8.98,4.56,1.22,4.19,3.92,4.66,8.27,3.27,14.33-4.59,28.99-7.51,44.19-4.96,2.94.49,6.78.07,7.36,3.94.57,3.82-2.61,5.72-5.68,7.22-.68.33-1.35.8-2.08.92-9.01,1.48-11.86,6.26-8.8,15.05,1.77,5.07-.98,7.59-6.16,7.81-4.59.19-9.18.36-13.6-1.03-5.59-1.77-9.22-.63-10.45,5.7-.94,4.8-3.39,7.32-8.57,4.34-3.42-1.97-6.85-2.24-9.41,1.43-2.62,3.75-4.08,7.68-.63,11.81.16.19.34.39.46.61,1.94,3.53,8.17,5.62,5.47,10.53-2.52,4.59-8.42,4.57-13.09,4.55-8.12-.02-14.85,1.46-19.32,9.19-2.3,3.98-5.93,4.58-9.2.41-.31-.4-.68-.75-1.03-1.12-8.67-9.19-8.98-9.39-15.88,1.33-3.32,5.15-7.32,6.38-12.79,5.57-1.89-.28-4.14-1.23-5.41,1.23-1.16,2.26.58,3.85,1.56,5.53,4.71,8.07,12.48,11.06,21.13,11.54,22.53,1.27,45,4.59,67.66,2.59,2.65-.23,5.79-.28,5.89,3.06.18,5.93,3.71,8.07,8.59,9.61,4.71,1.49,4.52,4.29,1.11,7.1-8.09,6.67-16.54,12.9-27.48,13.62-5.59.37-7.66,1.76-6.04,7.92,2.05,7.77-.05,9.26-7.57,6.55-1.67-.6-3.54-1-4.89-2.05-7.43-5.82-14.47-7.77-21.72.49-2.08,2.37-5.29,2.29-8.41.53-6.17-3.5-12.47-6.78-18.85-9.89-5.46-2.66-9.71-6.33-12.24-11.94-.81-1.79-1.97-4.1-4.52-2.55-3.41,2.08-7.61,3.6-8.99,7.75-.76,2.29,2.04,3.16,3.49,4.45.55.49,1.26.9,1.97,1.09,6.23,1.65,9.67,3.56,1.85,8.55-4.22,2.69-1.95,5.61,1.08,7.79,12.46,8.97,25.68,13.96,41.36,9.15,8.79-2.7,14.2,1.43,15.2,10.46,1,9.05-.7,11.46-9.65,12.85-4.75.74-9.58,1.04-14.38,1.39-5.06.37-5.42,2.24-2.57,6.14,5.35,7.32,10.83,9.66,19.84,6.96,5.06-1.51,10.05-3.62,14.64-6.23,4.61-2.62,8.3-2.12,11.38,1.76,11.9,15.02,27.78,14.67,44.39,11.84,3.99-.68,8-1.43,12.03-1.75,2.45-.2,5.37-.2,6.5,2.74,1.21,3.14-.64,5.57-2.97,7.17-3.54,2.42-7.28,4.62-11.16,6.43-4.19,1.95-6.23,4.04-4.98,9.32,1.89,7.94-.49,9.75-8.26,7.51-.24-.07-.56-.03-.74-.17-12.06-9.43-22.74-.57-33.84,2.58-2.08.59-3.19,2.31-4.3,4.08-5.04,8.06-7.44,9.05-15.05,3.96-5.14-3.44-8.3-3.76-12.6,1.26-6.42,7.48-14.34,5.43-22.28,2.02-8.29-3.56-8.33-3.35-7.83,5.34.17,3,.81,6.84-2.16,8.32-3.05,1.52-6.45-.37-9.14-2.39-5.96-4.47-7.16-11.39-8.94-17.99-1.08-4.02-1.04-10.91-5.12-10.62-4.94.35-2.83,7.07-3.41,11.05-1.31,9.03-2.09,18.11-4,27.07-1.61,7.51.72,9.79,8.41,9.14,3.53-.3,7.04-.99,10.55-1.49,3.14-.44,6.92-2.2,8.22,2.52,1.15,4.18.42,8.19-3.56,10.76-5.97,3.85-12.56,4.1-19.05,1.96-5.5-1.81-6.8-.02-6.21,5.19,3,26.79,3.09,53.71,3.64,80.61.1,4.76,1.16,10.52-4.05,12.95-6.92,3.23-14.53,4.58-22.23,2.68-2.53-.63-2.12-3.09-2.16-5.11-.41-19.29-1.01-38.57-1.12-57.86-.03-4.67-1.15-6.47-5.92-6.05-4.03.35-8.12.08-12.18.07-2.87,0-6.12-.04-6.36-3.76-.23-3.63,3.17-3.21,5.53-3.7.5-.1,1.01-.12,1.51-.19,18.16-2.68,18.74-2.74,16.8-20.83-1.64-15.33.18-30.43,1.03-45.6.27-4.82-.12-8-5.81-8.28-1.71-.08-3.38-1.01-5.08-1.49-2.58-.74-4.85-1.88-5.13-4.89-.31-3.34,2.56-4.01,4.76-5.11,3.28-1.63,7.48-1.36,10.43-5.25Zm65.65-428.17c8.94.28,16.58-3.67,24.28-7.45,1.15-.56,2.47-1.24,2.27-2.66-.19-1.4-1.56-1.84-2.87-1.9-9.62-.39-19.18-.04-28.12,4.04-2.1.96-5.54,2.02-4.84,4.97.75,3.16,4.26,2.88,7,3,.75.03,1.51,0,2.27,0Zm-2.92,181.32c-1.51.3-4.76-.11-4.45,2.97.41,4.01,3.04,7,7.47,7.11,2.9.07,5.87-.86,5.39-4.66-.56-4.38-3.9-5.44-8.4-5.42Zm-73.48-167.28c-.78-3.29-2.96-4.79-6.47-4.88-3.5-.09-5.42,1.57-5.17,4.91.26,3.45,2.45,5.5,6.09,5.22,3.04-.24,5.24-1.7,5.56-5.24Zm74.1,208.85c1.15,2.84-.04,7.52,4.54,8.18,2.78.4,4.48-2.14,3.84-5.09-.78-3.59-1.52-7.97-5.7-8.65-2.36-.38-2.46,3.12-2.68,5.56Zm-65.09-53.51c-.17-2.28-1.65-4.06-3.76-3.95-3.24.17-4.63,2.85-4.85,5.8-.16,2.19,1.44,3.19,3.5,2.93,2.71-.35,4.85-1.54,5.1-4.78Zm61.67-186.34c-.39-1.85-1.7-2.69-3.66-2.74-2.31-.05-3.9.93-4.08,3.33-.14,1.93.73,3.58,2.92,3.42,2.29-.17,4.31-1.11,4.83-4.01Z"/>
  <path class="cls-8" d="m626.91,924.88c4.75,6.43,9.23,12.61,12.37,19.61,1.49,3.33,5.1,3.4,7.97,3.9,14.29,2.51,28.61,4.62,41.93,11.05,4.42,2.13,9.59,1.88,14.6.94,3.61-.68,7.39-1.22,10.9.63,2.25,1.19,4.44,2.9,4.42,5.54-.02,2.77-2.95,2.69-4.89,3.36-29.34,10.23-58.97,7.33-88.7,2.07-7.94-1.4-12.43-5.53-14.53-13.39-1.2-4.5-2.75-11.82-8.06-10.9-4.85.84-3.5,8.24-4.23,12.95-.05.3-.01.62-.03.93-.96,25.29,2.08,29.14,27.61,31.4,11.04.98,22.24.53,33.36.21,16.15-.45,32,.18,47.6,5.37,12.93,4.3,25.99,3.66,39-1.38,13.51-5.24,28.26-.31,36.99,11.23,1.18,1.56,1.73,4.78,4.5,3.51,2.72-1.25,2.44-4.23,1.23-6.48-1.34-2.47-3.64-4.95-1.01-7.41,2.49-2.33,5.33-.31,7.57,1.17,5.04,3.32,9.7,2.71,14.63-.33,4.19-2.59,8.53-5.05,13.07-6.91,4.35-1.78,8.16.26,10.14,4.18,2.14,4.24-1.74,6.01-4.54,7.78-3.36,2.13-6.9,3.97-10.86,6.22,2.07,4.03,6.05,4.72,8.68,6.97,2.17,1.86,4.51,3.62,3.83,6.83-.86,4.05-4.43,2.54-6.87,2.71-11.44.81-22.64-3.42-34.14-1.82-1.16.16-2.3.43-4.65.88,6.43,4.62,13.28,2.38,19.18,4.54,10.88,3.99,12.62,9.75,4.22,17.6-1.95,1.83-1.25,3.08-.14,4.67,3.61,5.2,8.61,6.83,14.6,5.38,9.31-2.26,18.6-4.62,26.68-10.14,3.55-2.42,7.24-3.6,11.14-.76,4.58,3.34,5.23,7.11.04,10.14-4.23,2.47-8.93,4.19-13.53,5.97-7.78,3.01-14.72,6.23-13.05,16.83.59,3.76-2.5,6.02-6.23,6.88-6.97,1.61-13.92,2.85-21.02.56-4.03-1.3-8.11-2.6-13.28-1.21,13.67,5.95,16.07,20.17,23.88,30.31,1.53,1.99,5.19,3.74,3.07,6.77-2.05,2.94-5.64,1.83-8.61,1-10.19-2.86-19.53-7.84-28.6-12.99-8.07-4.58-16.02-6.07-24.8-3.98-4.42,1.05-8.74.71-12.73-1.03-22.53-9.85-47.96-1.67-70.61-12.11,13.05,12.91,36.74,7.8,46.01,29.95-16.05-4.63-31.49-2.91-45.68-8.44-14.4-5.62-29.06-8.06-44.46-6.48-8.78.9-17.17-1.15-25.28-4.5-3.84-1.59-7.28-2.37-7.26,3.91.09,31.5.04,63.01.04,94.28,4.47,1.68,6.31-1.85,9.11-2.66,4.32-1.25,8.33-.66,10.93,2.74,2.72,3.55-.35,6.68-2.89,8.68-14.95,11.72-17.43,27.21-16.89,45.28,2.83,95.79-3.4,191.62.66,287.44,1.24,29.32-3.29,58.6-3.43,88-.07,14.28-7.79,20.98-22.37,21.71-8.94.45-17.92.01-26.88.26-5.63.16-7.56-2.4-7.68-7.8-1.39-64.29-1.4-128.55,3.06-192.76,2.05-29.58,4.28-59.12,3.92-88.88-.69-56.86-1.3-113.75.78-170.59.47-12.94-2.58-22.96-13.85-29.99-2.12-1.32-5.9-3.06-4.4-6.15,1.68-3.46,5.57-1.88,8.19-.69,7.44,3.36,8.35-.95,8.72-6.68,1.49-23.12,3.05-46.24,4.67-69.36.29-4.09-.79-7.28-5.41-6.14-4.84,1.19-13.54-2.74-13.05,6.9.77,15.14-6.18,25.97-16.95,35.28-5.39,4.66-11.16,7.14-18.65,5.92-5.1-.82-10.45.04-15.69.03-2.64,0-6.06,1.19-7.5-1.69-1.39-2.77,1.27-5.14,2.71-7.43,3.24-5.15,8.76-8.71,9.87-15.89-11.36,6.72-24.92,10.12-31.89,23.3-2.88,5.44-5.96,10.82-9.46,15.87-4.52,6.52-10.24,10.97-18.78,12.1-9.39,1.24-16.49,8.1-24.62,12.46-13.84,7.43-13.97,7.46-24.01-4.21-2.8-3.25-5.57-2.88-9.09-1.89-8.01,2.25-16.06,4.39-24.2,6.13-4.68,1-9.43,1.08-10.79-5.39-.99-4.73-4.98-3.8-8.24-3.85-11.16-.17-22.14-1.97-33.07-3.93-8.85-1.58-10.15-5.77-4.65-12.79,6.11-7.81,14.48-8.78,23.45-7.63,8.35,1.07,15.92,6.26,23.89,6.75,7.49.46,12.23-9.49,20.8-9.81,6.55-.24,9.39-3.81,8.29-10.39-1.57-9.39,2.69-12.76,11.85-12.57,6.75.14,13.53-1.17,20.29-1.87,1.8-.19,4.18-.19,4.33-2.48.15-2.25-2.2-2.64-3.94-3.22-9.01-2.95-17.8-.5-26.48,1.45-10.28,2.31-20.63,3.86-31.12,4.59-4.75.33-8.35-.23-5.47-6.48,3.06-6.63.04-9.22-6.45-10.78-10.97-2.64-21.26-6.9-27.29-17.45-2.01-3.51-4.31-7.37-1.32-11.18,2.87-3.65,6.24-.37,9.24.46,10.81,3.01,22.88.04,32.83,7.35,4.95,3.63,10.56,6.35,15.78,9.62,3.46,2.16,7.11,3.68,11.13,4.3,12.47,1.92,13.46,1.41,12.88-11.2-.29-6.28,2.46-7.46,7.54-7.43,9.85.07,19.69.02,29.57-.59-17.66-1.55-35.43-1.67-52.66-6.53-5.24-1.48-9.67-3.9-13.51-7.63-1.92-1.87-2.96-4.12-2.21-6.68.92-3.14,3.82-2.43,6.21-2.67,23.75-2.36,47.58-.4,71.36-1.49,16.98-.78,33.99-1.05,50.98-1.55,26.92-.81,48.93-13.84,70.02-28.69,6.98-4.92,8.52-13.32,9.59-21.4.44-3.34-.8-6.12-3.85-7.78-7.04-3.85-8.85-9.71-6.99-17.2.5-2.03,1.56-4.77-.38-6.11-2.5-1.73-4.68.73-6.42,2.26-10.89,9.61-21.48,19.56-32.5,29.01-16.85,14.45-21.89,14.9-41.21,4.15-3.49-1.94-6.32-1.61-9.54.09-3.82,2.02-7.82,3.69-11.59,5.8-4.43,2.48-8.27,2.2-11.44-1.88-6.91-8.87-15.87-9.65-25.84-6.8-11.26,3.22-22.49,6.59-33.83,9.53-7.56,1.96-15.36,1.47-23.07.72-2.39-.23-6.1-.62-6.83-2.11-4.59-9.38-12.79-6.84-20.18-6.65-9.49.25-18.49-1.03-26.5-6.55-1.48-1.02-3.68-1.83-3.12-4.07.52-2.07,2.72-2.27,4.55-2.48,8.63-.98,17.27-.8,25.92-.2,2.99.21,6.11.66,8.64-1.82-1.38-3.87-5.2-4.44-7.73-6.53-1.86-1.54-4.74-2.64-3.45-5.7,1.26-2.97,4.31-2.15,6.56-1.68,5.42,1.12,10.94,2.2,16.09,4.18,12.27,4.72,24.74,4.83,37.41,2.71,2.08-.35,4.21-1.11,6.04-2.15,2.1-1.19,4.68-2.76,4.29-5.5-.44-3.07-3.82-3.02-5.96-3.21-11.38-.99-22.8-1.59-34.2-2.36-2.15-.14-4.37-.16-6.39-.77-2.24-.68-5.25-1.35-4.8-4.59.5-3.58,3.45-3.81,6.42-3.68,2.77.12,5.58.31,8.33.06,5.67-.52,6.06-3.52,2.86-7.4-2.15-2.6-4.87-4.72-7.16-7.22-1.86-2.03-4.36-4.51-2.76-7.27,1.91-3.28,5.32-.89,7.44.04,10.48,4.65,21.33,8.08,32.34,11.11,1.5.41,2.87,1.04,4.75-.48-3.59-5.29-11.14-5.11-14.6-10.4-1.45-2.22-4.99-3.96-3.1-6.93,1.71-2.68,5.11-1.49,7.69-.69,11.78,3.63,23.23,8.46,35.8,9.01,7.2.32,14.02-.59,20.52-4.98-5.08-3.81-10.89-3.33-16.14-4.72-2.63-.7-6-.78-6.41-4.24-.38-3.28,1.28-5.95,4.42-7.47,3.55-1.72,7.1-3.46,11.51-5.62-6.81-5.15-14.2-4.59-20.71-6.69-5.3-1.71-12.87-3.26-12.1-9.2.96-7.47,8.71-5.12,13.87-4,14.64,3.18,27.82.62,42.15-4.44,21.2-7.49,42.56-15.53,66.18-15.21,15.25.21,27.59-10.59,38.15-20.73,5.31-5.1,3.09-14.72,2.32-22.36-.36-3.59-3.64-2.8-5.89-1.76-12.26,5.64-24.25,5.16-36.71.09-7.57-3.08-15.11-.17-22.29,3.26-6.96,3.33-14.1,6.43-22.19,4.73-3.15-.66-6.34-1.89-7.2-5.11-.93-3.5,2.05-5.51,4.59-7.28,6.59-4.58,13.27-9.05,19.84-13.67,1.87-1.32,5.12-2.17,3.91-5.36-.98-2.57-3.7-1.4-5.74-1.38-9.68.08-18.61,1.85-27.34,6.99-11.19,6.59-23.62,10.89-37,10.37-5.04-.19-11.96,1.23-13.86-4.76-1.66-5.23,6.87-4,8.8-9.3-8.21-3.15-16.91-1.68-25.15-2.73-11.71-1.5-23.21-3.33-34.09-8.02-1.81-.78-4.8-.63-4.94-3.34-.13-2.62,2.36-3.33,4.44-3.94,5.67-1.64,10.04-4.4,11.35-10.8.81-3.97,3.69-3.5,6.45-1.88,1.05.62,2.11,1.44,2.77,2.43,11.69,17.53,30.72,17.35,48.5,20.03,5.58.84,10.96.08,15.65-5.45-6.07-3.33-11.63-6.49-17.3-9.46-5.71-2.99-4.76-6,.2-8.26,6.64-3.03,13.56-5.46,21.15-8.47-3.24-5.18-8.54-4.44-12.24-6.56-3.72-2.13-9-3.86-8.16-8.86.78-4.66,6.23-4.4,10.07-4.72,12.3-1.04,24.72.25,36.97-2.21,3.33-.67,6.72-.93,10.2-2.8-3.27-5.44-9.66-4.74-14.15-7.44-3.11-1.87-8.06-3.21-7.32-7.27.9-4.9,6.17-3.5,9.4-2.73,30.66,7.4,57.15-.96,80.84-20.63,4.43-3.68,12.06-4.71,13.22-10.81,1.71-9.04,1.05-18.5-.48-27.67-.91-5.45-6.02-4.57-9.76-4.89-20.31-1.73-40.76-1.77-60.96-4.87-7.02-1.08-14.1-1.95-20.99-3.58-19.01-4.51-36.66.85-54.35,6.69-5.44,1.8-11.03,3.98-17.91,1.3,5.76-11.46,19.43-12.39,28.42-22.03-11.68.44-21.7.86-31.66-.31-11.32-1.33-12.39-2.62-9.26-13.8,1.18-4.23-.65-4.96-3.93-5.07-5.25-.17-10.51-.28-15.76-.43-3.11-.09-6.28-.28-8.93-2.04-2.87-1.91-6.14-4.7-5.14-8.08,1.22-4.14,5.19-1.59,7.99-1.19,12.23,1.72,24.43,3.61,36.66,5.29,3.64.5,8.36,1.53,10.42-1.69,2.22-3.47-2.74-5.41-4.37-8.12-.78-1.31-2.12-2.27-2.93-3.56-1.74-2.78-5.33-5.83-2.89-8.97,2.4-3.09,5.6.59,8.19,1.58,10.91,4.18,21.29,10.06,33.49,9.81,7.92-.17,13.58-1.69,15.91-11.53,2.4-10.15,13.41-7.23,21.05-8.91,1.66-.36,3.67.42,5.42.96,12.93,4.02,25.57-.9,32.38-12.39,2.19-3.7.99-4.36-2.66-5.27-19.15-4.73-37.47-.75-55.49,5.2-6.61,2.18-11.44,3.29-12.49-5.65-.6-5.07-4.55-3.21-7.22-3-12.34,1.01-24.65,1.88-37.02.64-3.69-.37-8.1-.06-7.57-5.62.43-4.47,3.55-6.06,7.9-5.83,14.81.79,29.62,1.45,44.42,2.2,2.59.13,6.45,2.35,7.1-1.43.69-4.02-3.79-3.92-6.62-4.65-5.97-1.54-12.03-2.82-17.92-4.61-2.61-.8-5.77-2.73-4.87-5.82,1.07-3.7,4.45-1.98,7.06-1.31,26.29,6.72,52.57,13.44,78.87,20.14,3.29.84,6.6,1.65,9.94,2.24,20.71,3.64,36.88-3.95,47.2-22.36,1.47-2.62,2.72-5.8,2.72-8.72,0-17.92.76-35.84-1-53.75-.63-6.37-3.69-8.32-9.08-7.03-14.3,3.42-27.29,1.97-39.48-7.2-4.48-3.37-10.88-.67-16.39-.78-5.53-.1-8.8-1.36-8.2-7.99.55-6.1-11-21.58-16.63-23.07-12.32-3.27-23.67-8.78-34.79-14.83-2.99-1.63-7.13-3.43-5.78-7.23,1.54-4.34,5.69-1.88,8.82-1.12,11.67,2.85,23.12,6.8,35.42,6.26,9.22-.41,10.34-1.94,7.34-10.64-.96-2.78-3.64-5.72-.75-8.52,2.71-2.63,5.86-.45,8.72.37,10.61,3.01,11.39,3.07,18.91.13-3.09-3.3-7.46-2.84-10.85-4.47-3.25-1.56-6.55-2.98-6.11-7.04.4-3.59,3.03-5.98,6.57-7.06,5.74-1.76,11.62-1.79,17.46-.87,7.63,1.2,15.19,2.82,22.8,4.09,14.06,2.35,26.03-1.89,38.35-12.95-16.11-1.46-26.16-12.26-39.44-16.23-3.49-1.04-7.17-2.57-7.51-7.16-.35-4.74,3.51-6.11,6.65-7.93,7.37-4.27,15.53-5.9,23.85-6.94,3.32-.41,6.85-.23,10.08-4.12-7.96-2.66-15.48-1.1-22.9-.73-17.57.87-35.13,1.97-52.71,2.71-6.58.28-12.43-1.55-14.37-8.95-1.15-4.38-4.92-4.24-8.06-5.01-12.03-2.94-23.66-7.02-34.93-12.11-8.15-3.68-14.08-9.9-18.92-17.25-3.05-4.62-1.57-6.97,3.79-6.84,5.25.13,10.49.75,15.74.81,11.93.14,17.37-4,19.58-15.84,1.08-5.77,4.82-3.78,7.7-3.49,24.39,2.46,47.96-1.88,71.28-8.38,1.07-.3,2.02-1,5.01-2.52-12.33-4.82-23.8-4.96-34.69-7.38-9.61-2.14-19.65-2.13-29-5.73-7.71-2.96-14.27-7.25-18.52-14.58-3.24-5.59-3.18-9.42,4.7-9.56,2.78-.05,5.56-.3,8.32-.62,4-.47,8.08-.43,6.87-6.85-.85-4.52,3.19-5.2,6.74-5.66,12.08-1.55,24.06.1,36.07.96,3.39.24,6.75.93,10.14.96,3.01.03,7.25,1.76,7.14-4.14-.08-4.39.65-8.99-5.65-9.66-2.46-.26-4.89-.74-7.35-.94-9.77-.81-19.07-1.68-18.6-15.41.19-5.39-4.73-6.41-9.37-6.85-3.42-.32-7.48-1.25-8.15-4.94-.79-4.35,3.86-5.24,6.75-6.23,20.35-7.01,37.36-21.96,59.41-24.87,2.75-.36,5.5-.75,8.25-1.12,4.54-.61,6.47-3.32,5.89-7.73-.44-3.36-1.2-6.68-1.77-10.03-3.48-20.75-14.83-20.59-25.67-10.41-1.7,1.59-3.87,3.77-6.52,1.97-2.95-2.01-3.07-5.16-2.15-8.34,3.28-11.3,12.7-16.06,22.58-18.47,8.6-2.09,11.49-5.32,10.49-14.25-.99-8.8-1.03-17.93,1.77-26.66.74-2.31,1.13-5.32,4.33-5.16,2.74.14,4.1,2.44,4.83,4.98,2.75,9.62,2.66,19.58,3.12,29.41.27,5.64,1.99,9.16,7.37,11.38,6.04,2.5,11.35,6.25,14.9,12.04,5.57,9.08,3.88,12.6-6.7,13.37-5.78.42-10.95.47-11.44,8.65-.82,13.55-1.19,13.79,12.51,12.17,7.73-.92,11.98,1.57,12.06,9.57.1,9.61,4.23,11.76,13.47,9.4,11.05-2.82,22.54-4.08,33.88-.57,1.96.61,4.16.95,5.42,3.1-1.3,3.08-3.91,4.92-6.78,5.83-7.92,2.52-15.23,4.9-15.45,15.52-.08,3.59-4.76,3.13-7.78,3.2-4.85.12-8.21,1.12-11.07,6.24-3.62,6.5-11.89,5.61-18.29,6.63-15.63,2.49-15.69,2.12-12.76,17.88q2.96,15.91,19.5,17.95c3.98.49,7.97.99,11.94,1.54,2.27.31,5.33-1.04,6.37,2.19.85,2.64-1.02,4.58-2.55,6.58-2.14,2.81-8.08,4.28-6.31,8.01,1.84,3.89,7.2,1.04,11.01,1.32,3.61.27,8.06-.96,10.16,2.85,1.94,3.51-1.68,6.19-3.14,9.11-5.83,11.65-15.35,18.24-29.98,19.92,12.96,11.94,27.05,16.79,42.47,18.63,17.08,2.04,33.85.22,50.64-3.21,4.68-.96,12.16-5.13,14.57,2.31,2.49,7.71-3.63,12.99-10.19,15.51-8.89,3.43-18.31,5.5-27.47,8.24-1.44.43-2.72,1.37-5.19,2.65,4.97,2.91,8.97-.14,12.84.1,4.92.31,9.87.09,14.78.49,3.11.25,6.43,1.23,6.74,5.08.31,3.84-2.8,5.19-5.81,6.18-15.72,5.14-31.92,6.81-48.36,6.37-3.75-.1-3.75-.37-8.58,1.18.07,1.8,1.59,2.33,2.71,3.31,2.09,1.83,7.09.85,6.19,5.44-.89,4.55-5.33,4.31-8.8,5.41-3.79,1.21-11.64-1.86-10.76,2.92,1.01,5.47,2.94,13.62,11.48,15.05,11.09,1.86,22.18.91,33.27.25,4.68-.28,11.42-3.11,12.62,3.27,1.02,5.48-5.55,7.27-10.32,8.72-11.72,3.56-23.21,1.38-34.75-1.21-5.23-1.17-10.35-3.92-16.77-2,5.14,8.3,13.06,11.49,21.23,13.98,11.81,3.6,23.85,2.26,35.88,1.04,7.06-.72,14.17-.87,21.27-1.15,3.7-.15,6.96.93,7.47,5.2.55,4.58-2.47,7.17-6.38,7.66-8.57,1.06-17.23,2.14-25.83,1.95-10.4-.22-19.41,2.68-28.34,8.96,4.48,3.33,8.53.92,12.36.07,6.5-1.43,12.42-2.39,18.08,3.04,4.9,4.7,11.82,2.24,17.86,2.95,3.2.37,7.89-.91,8.62,3.31.79,4.59-4.05,5.62-7.37,6.9-6.9,2.67-13.99,4.85-20.86,7.59-3.26,1.3-6.19,3.41-10.76,6,7.23,3.09,12.56,2.68,18.03,1.56,6.34-1.3,12.7-2.59,19.11-3.44,4.45-.59,8.57.9,11.95,3.98,3.42,3.12,4.73,5.98-1.16,7.77-4.43,1.34-8.94,2.49-13.23,4.2-2.42.96-6.36.13-6.95,3.54-.61,3.54,2.92,5.06,5.2,7.06,2.55,2.24,5.33,4.29,7.53,6.84,1.83,2.12,5.42,4.45,2.53,7.8-2.77,3.22-6.37,1.77-9.25-.21-5.33-3.65-10.05-8.23-16.05-10.88-1.92-.85-4.01-2.31-6-.43-2.34,2.21.02,3.89,1.06,5.59,1.25,2.07,3.67,4.22,1.42,6.53-2.13,2.19-5.22,1.25-7.92.47-19.35-5.56-37.78-13.41-55.47-22.95-4.34-2.34-8.36-5.18-13.3-6.33-1.97-.46-4.45-1.47-4.32-4.15.13-2.6,2.6-3.35,4.6-3.96,7.56-2.31,15.66-3.1,24.56-8.75-14.32-3-25.92-1.02-37.26,3.69-.8.33-1.97,1.13-1.99,1.75-.32,10.44-1.15,20.96.83,31.27.74,3.83,4.06,1.33,6.06.54,3.73-1.49,7.26-3.47,11.48-3.17,2.24.16,4.54.48,5.23,2.96.73,2.6-.03,4.89-2.67,6.22-.83.42-1.55,1.16-2.42,1.36-17.46,3.96-21.37,15.97-19.31,31.86.55,4.26.03,8.65.07,12.97.15,16.13,3.26,19.81,20.24,20.23,16.38.41,32.61-2.44,48.88-4.19,19.94-2.14,39.93-5.23,59.84.44,3.21.91,7.72.81,8.29,4.66.68,4.64-4.17,5.39-7.39,6.95-1.38.67-2.89,1.09-4.38,1.49-5.37,1.45-6.34,3.49-1.24,6.93,2.5,1.69,5.91,3.84,4.62,7.19-1.29,3.36-5.28,2.46-8.31,2.36-9.75-.35-19.44-.28-28.94,3.52,12.61,2.76,23.96,7.84,34.7,14.68,5.6,3.56,5.39,6.02.19,9.22-1.31.81-2.49,1.88-3.87,2.53-6.67,3.11-12.4,5.61-3.13,13.27,5.11,4.22.43,6.55-4.05,7.48-21.98,4.54-43.64,2.56-65.12-3.15-2.08-.55-4.1-1.37-6.2-1.85-3.21-.73-8.3-2.78-9.21.3-1.36,4.61,4.04,6.6,7.7,7.31,7.25,1.41,14.7,1.73,22.05,2.67,3.97.5,8.03.93,11.81,2.12,5.11,1.62,7.54,5.09,5.38,10.71-.87,2.28-1.54,4.68-1.95,7.09-.49,2.92.3,5.59,2.89,7.33,2.67,1.79,4.74-.17,6.69-1.51,12.49-8.57,25.72-15.9,38.85-23.42,13.06-7.47,26.84-8.55,41.24-6,3.37.6,7.35,1.55,7.8,5.3.43,3.61-2.81,6.09-5.97,7.55-11.03,5.09-22.96,7.06-34.69,9.72-6.36,1.44-11.95,3.12-11.38,11.61.27,4-3.29,5.56-6.66,6.69-4.67,1.57-9.31,3.2-13.3,7.25,3.43,3.94,7.8,3.24,11.86,2.67,12.53-1.77,25.02-3.83,37.54-5.72,3.3-.5,7.19-1.82,8.88,2.41,1.4,3.5.04,7.58-3.01,9-19.61,9.1-38.45,20.83-61.33,19.79-1.21-.06-2.43-.46-3.6-.83-4.32-1.38-6.54-.55-5.72,4.66.58,3.7.62,7.79-3.32,9.84-4.26,2.22-7.6-.91-10.95-2.95-1.57-.95-2.87-2.35-4.32-3.49-8.52-6.71-14.28-17.09-29.37-9.5-10.74,5.4-24.37.66-35.92-4.21-5.83-2.46-7.58-1.43-7.72,4.9-.36,16.23,8.9,26.61,27.08,29.29,10.13,1.5,20.34,1.7,30.53.65,6.56-.68,11.94.31,12.87,8.17.67,5.68,4.68,4.79,8.31,4.44,12.34-1.19,24.69-1.82,36.97.2,4.43.73,11.14,1.14,11.37,6,.23,4.84-6.05,6.08-10.72,6.93-12.74,2.33-25.53,4.48-38.21,7.12-4.65.97-9.06,3.11-13.58,4.71.11.87.22,1.74.33,2.61,6.51,0,13.02-.01,19.53,0,3.08,0,6.67-.52,8.59,2.36,9.81,14.74,23.7,9.79,35.85,6.07,7.9-2.42,15.25-3.96,23.35-3.56,9.54.47,19.09,1.41,28.65-.52,6.56-1.32,9.93,2.21,7.92,8.41-2.45,7.55,1.5,7.54,6.79,7.49,6.17-.06,12.38-.02,18.4,1.73,4.14,1.2,7.71,3.46,7.72,8.07.02,5.36-4.69,6.15-8.64,6.46-17.01,1.36-33.94,1.63-50.34-4.47-2.31-.86-5.76-3.06-7.42.16-1.3,2.54,2.29,3.79,3.81,5.58,2.4,2.83,8.15,5.18,5.44,9.23-2.48,3.72-7.35.22-11.09-.83-.29-.08-.59-.22-.83-.4-12.82-9.46-25.69-13.12-40.53-3.32-5.47,3.62-13.14,2.83-19.92,3.34-2.03.15-4.7-.58-4.91,2.64-.18,2.75,2.15,3.5,4.16,4.24,8.08,2.95,16.48,2.09,24.78,1.8,5.6-.19,11.16-.4,16.52,1.37,3.73,1.24,6.87,3.55,6.01,8.09-.88,4.64-4.93,2.69-7.62,2.75-9.89.22-19.78.16-29.68.05-3.89-.04-7.23-.02-8.57,4.83-1.61,5.81-4.84,6.46-9.37,2.27-13.19-12.23-29.16-16.7-46.82-16.61-10.81.06-21.64-.18-32.44-.65-4.98-.22-6.71,1.68-6.26,6.44.26,2.76.05,5.56.04,8.34-.01,24.46,8.62,35.44,32.9,42.06,13.18,3.6,26.79,4.49,40.22,6.38,6.69.94,10.16,3.58,10.51,10.21.29,5.53,3.04,6.82,8.03,5.07,8.43-2.94,17.38-4.75,24.21-11.07,5.01-4.65,8.72-1.22,11.82,2.13,3.92,4.23,7.21,4.22,11.97,1.2,9.9-6.3,20.39-11.62,31.31-15.95,4.19-1.66,9.08-4.36,11.91,1.88,2.62,5.78-2.4,7.73-6.03,9.64-12.21,6.4-24.6,12.46-37.17,18.78,3.82,4.83,9.79,5.25,14.49,7.95,2.66,1.53,5.6,2.62,8.08,4.38,2.33,1.65,4.14,4.23,2.56,7.17-1.59,2.96-4.41,1.36-6.64.71-20.99-6.13-42.22-4.58-63.47-2.01-2.03.25-4.44-.16-5.72,2.81,4.68,5.45,11.65,4.42,17.71,5.65,5.14,1.04,10.38,1.44,15.01,4.27,12.82,7.83,12.95,15.34-.65,22.87,5.81,2.28,10.71,1.53,15.68-.18,6.75-2.32,13.71-3.69,20.84-3.94,2.68-.1,6.09-.4,6.62,3.35.43,3.1-1.71,5.23-4.44,6.38-6.82,2.87-13.75,5.46-20.52,8.43-2.48,1.09-6.39,2.74-6.62,4.52-1.55,12.15-7.58,7.39-13.46,4.1-.79-.44-1.74-.8-2.63-.86-31.46-2.05-57.76-18.87-86.04-30.04-1.36-.54-2.74-1.52-5.7.28Zm-98.5-186.72c-.74,2.03-2.16,4.06-2.09,6.04.34,9.23-4.97,11.89-13.02,12.88-6.03.74-11.93,2.73-17.79,4.48-2.58.77-5.77,2.08-5.29,5.39.51,3.48,4.06,3.24,6.72,3.45,11.66.91,23.28-.87,34.98-.51,8.27.26,9.28-8.78,12.32-14.41,2.56-4.75-.99-8.26-4.83-10.55-3.64-2.17-6.26-6-11.01-6.77Zm250.79,322.54c5.97-.23,11.8-.52,17.11-3.47,1.96-1.09,3.49-2.78,3-5.23-.45-2.24-2.4-2.43-4.33-2.46-11.61-.17-22.46-3.18-32.65-8.7-1.72-.93-2.91-1.19-4.66.67-7.5,7.96-7.61,7.85-11.81-2.13-.71-1.69-1.22-3.6-2.36-4.97-3.34-4.01-7.06-2.18-10.78-.37-2.22,1.08-4.34,3.5-2.19,4.74,8.41,4.84,10.94,16.69,22.23,17.98,8.84,1.01,17.62,2.61,26.42,3.94Zm-264.76-140.13c-.3-5.79-3.04-7.55-9.14-6.26-13.31,2.81-23.54,10.5-33.07,19.47-2.26,2.13-6.81,4.42-4.01,8.05,2.62,3.4,7.14,1.65,10.07-.61,9.23-7.14,19.76-11.21,30.85-14.17,3.2-.85,5.91-2.15,5.3-6.47Zm133-265.11c-10.63-8.08-21.04-16.25-34.45-18.83-3.23-.62-7.04-2.84-8.95,1.38-1.75,3.87.59,7.5,3.76,9.56,12,7.79,25.22,10.39,39.64,7.88Zm-38.15,424.95c-3.47,0-7.82.17-8.99,3.34-1.41,3.81,3.27,5.29,5.74,7.22,2.13,1.67,4.76,2.93,7.36,3.73,4.34,1.34,10.2,6.76,12.96,1.61,3.34-6.22-3.71-10.03-8.36-13.34-2.48-1.76-5.52-2.72-8.72-2.56Zm110.73,5.95c-10.95-6.26-21.49-7.5-32.31-7.39-1.81.02-4.1-.2-4.47,2.12-.25,1.52,1.19,2.68,2.81,3.17,10.69,3.2,21.27,7.83,33.97,2.11Zm-338.76,47.64c6.94-1.33,13.97-5.06,20.65-9.25,3.36-2.11.07-3.39-1.69-4.18-6.9-3.1-18.82.39-23.09,6.65-1,1.47-2.51,2.9-1.62,4.85.89,1.93,2.82,2.1,5.74,1.93Zm234.37-395.83c2.83-1.61,9.37.63,8.68-5.2-.66-5.56-5.17-9.73-11.29-10.32-4.81-.47-7.99,2.85-7.85,7.12.18,5.72,4.41,8.37,10.47,8.4Zm110.51,300.6c-6.04-5.86-12.59-10.93-20.37-14.07-2.14-.86-5.28-.77-6.51,1.71-1.44,2.9,1.33,4.33,3.33,5.61,6.99,4.5,14.56,7.29,23.55,6.74Zm-94.04-408.63c4.09-.86,11.21-1.65,9.92-5.43-2.15-6.31-10.34-6.15-16.41-7.49-2.18-.48-5.79-.13-5.22,3.25,1.05,6.23,5.77,8.87,11.71,9.68Zm-78.01-27.35c-5.02-3.43-9.96-4.98-15.15-4.58-4.22.32-8.69,2.65-7.85,6.95.73,3.78,5.61,4.34,9.43,3.01,4.6-1.6,9.06-3.58,13.58-5.39Zm-29.07-404.92c-7.06-4.24-13.05-5.67-19.59-3.56-2.02.65-4.27,1.7-4.1,4.31.17,2.65,2.5,3.7,4.64,3.57,6.02-.36,12.28.1,19.05-4.32Zm36.61,573.88c-.7-3.16-1.32-7.84-4.49-7.1-5.49,1.29-7.21,7-8.3,12.09-.48,2.23,1.01,4.23,3.87,3.61,4.76-1.04,8.53-3.21,8.92-8.59Zm79.88-3.28c-8.55-.52-16.62.58-25.8,5.78,10.78,1.21,18.92.32,25.8-5.78Zm10.47,251.3c5.39,5,9.69,7.53,15.07,7.55,1.96.01,4.76-.03,5.25-2.61.58-3.03-2-4.6-4.37-4.82-4.52-.43-9.1-.12-15.94-.12Zm-5.1,45.27c5.93,4.58,12.35,7.26,19.89,5.69-5.95-4.25-12.01-8.02-19.89-5.69Zm-228.5-123.64c-2.85.81-8.56-1.19-8.21,2.83.41,4.66,6.45,3,10.06,3.26,2.94.22,8.45.98,7.92-3.15-.51-3.96-6.12-2.45-9.77-2.94Zm205.86-569.83c-1.28-3.53-4.24-3.48-6.89-3.08-2.85.43-7.14.45-7.09,4.21.04,3.16,3.96,3.43,6.64,3.19,2.96-.26,6.1-.88,7.34-4.31Zm62.92,401.38c-.43-4.04-2.8-5.82-6.75-5.77-1.9.02-3.88.1-3.77,2.71.18,4.38,3.51,6.47,6.95,7.42,2.59.72,3.02-2.28,3.57-4.36Zm-62.51,103.8c-2.4-1.83-5.21-3.36-8.65-3.52-1.7-.08-3.49.72-2.66,2.43,1.6,3.27,4.87,4.19,8.37,4.12,1.62-.03,2.94-.49,2.93-3.04Z"/>
  <g>
    <path class="cls-6" d="m870.04,1047.78c108.46-.19,197.39,76.07,213.92,183.6,1.15,7.47,1.03,15.12,2.12,22.6,1.24,8.5-.81,11.89-10.28,10.12-31.63-5.92-63.52-10.41-95.58-13.04-61.56-5.06-123.11-7.15-184.93-2.42-43.47,3.32-86.61,8.45-129.58,15.39-8.29,1.34-10.02-1.46-9.5-8.82,6.02-85.78,47.1-148.45,123.71-187.55,25.68-13.11,57.82-19.82,90.12-19.88Z"/>
    <path class="cls-7" d="m855.21,1263.35c140.97-.3,262.53,19.09,381.17,58.17,45.04,14.84,88.6,32.99,131.99,51.81,1.73.75,3.62,1.37,5.05,2.54,1.84,1.5,5.29,1.3,5.32,4.78-2.18-.22-4.47-.1-6.54-.72-30.82-9.21-61.77-17.89-93.08-25.35-83.33-19.85-167.51-33.99-252.89-41.82-72.95-6.69-145.96-8.14-219.02-5.77-84.84,2.75-169.06,12.15-252.55,28.06-61.76,11.77-122.82,26.24-183.02,44.38-2.47.74-6.67,2.84-7.24,1.07-1.04-3.22,3.25-4.19,5.68-5.3,67.26-30.78,136.37-56.35,208.03-74.98,55.43-14.41,111.63-24.45,168.51-30.71,41.44-4.56,83.01-6.84,108.57-6.15Z"/>
    <path class="cls-11" d="m917.37,1009.31c.85,5.19-1.92,5.69-6.05,4.95-26.32-4.73-52.7-4.71-79.02-.23-7.91,1.35-7.92-1.9-6.62-8.08,6.83-32.56,13.3-65.19,20-97.78,7.23-35.17,14.54-70.32,21.94-105.46.65-3.09.05-8.45,3.69-8.43,3.57.01,3.02,5.36,3.67,8.47,13.35,63.62,26.62,127.25,39.85,190.9,1.08,5.17,1.71,10.44,2.55,15.66Z"/>
    <path class="cls-9" d="m1308.44,1081.91c-3.33,2.45-4.8,3.61-6.35,4.66-58.5,39.67-117.12,79.16-175.38,119.17-7.99,5.49-9.93,3.05-11.81-4.57-6.21-25.13-16.16-48.73-29.81-70.74-2.3-3.71-3.47-6.66,2.81-7.84,71.27-13.46,142.51-27.1,213.76-40.64,1.66-.31,3.42-.04,6.77-.04Z"/>
    <path class="cls-10" d="m444.87,1082.13c18.03,3.43,35.49,6.75,52.95,10.06,47.18,8.92,94.32,18.03,141.54,26.67,21.98,4.02,21.88,3.51,11.08,23.22-9.49,17.32-16.3,35.73-21.45,54.81-3.95,14.62-4.24,14.58-16.35,6.36-55.39-37.62-110.79-75.24-166.11-112.97-2.54-1.73-6.59-2.66-6.23-6.83.05-.62,3.27-.97,4.56-1.32Z"/>
    <path class="cls-4" d="m1006.41,1049.98c-2.85-1.58-5.56-2.93-8.12-4.52-21.11-13.04-43.91-21.98-68.04-27.41-6.99-1.57-8.04-3.25-3.78-9.45,40.21-58.58,80.13-117.35,120.21-176,1.41-2.06,2.62-6.3,4.93-5.32,2.11.89,0,4.79-.48,7.32-11.12,58.27-22.29,116.54-33.39,174.82-2.12,11.12-3.96,22.3-5.92,33.45-.58,3.3-.77,6.9-5.41,7.12Z"/>
    <path class="cls-5" d="m1204.33,931.38c-1.13,1.82-2.28,3.78-3.53,5.68-38.48,58.48-77.02,116.92-115.36,175.48-3.8,5.8-6.15,7.83-11.33,1.08-15.72-20.5-33.2-39.44-54.56-54.22-8.81-6.1-2.9-8.7,1.82-11.8,25.31-16.62,50.72-33.08,76.01-49.71,32.88-21.62,65.68-43.37,98.57-64.98,2.45-1.61,5.36-2.5,8.06-3.72.1.67.19,1.35.32,2.19Z"/>
    <path class="cls-24" d="m691.47,834.18c-.08-1.37-1.11-3.52.72-3.79,2.47-.36,3.81,2.1,5.06,3.92,11.32,16.52,22.59,33.08,33.84,49.64,27.18,40.02,54.41,80,81.47,120.1,7.68,11.39,7.5,11.77-5.21,15.05-23.24,5.98-45.21,14.96-65.5,27.77-7.49,4.73-9.89,3.15-11.49-5.56-9.76-53.13-20.12-106.15-30.2-159.22-3.03-15.94-5.8-31.93-8.68-47.9Z"/>
    <path class="cls-25" d="m727.88,1053.96c-.25,2.61-2.5,3.58-4.29,4.86-21.37,15.36-39.14,34.39-55.23,55-4.59,5.89-7.09,5.05-10.72-.51-34.85-53.49-69.79-106.93-104.77-160.35-3.93-6-8.28-11.72-12.3-17.66-1.19-1.76-3.78-4.06-2.1-5.8,1.78-1.84,3.95.85,5.72,2.01,30.95,20.32,61.89,40.65,92.8,61.03,28.39,18.72,56.75,37.48,85.09,56.27,2.12,1.41,4.93,2.16,5.78,5.15Z"/>
    <path class="cls-23" d="m538.68,1292.04c-26.58-5.47-53.97-11.09-81.35-16.75-17.4-3.59-34.79-7.21-52.17-10.93-1.69-.36-3.21-1.46-4.81-2.22,1.65-.79,3.23-1.95,4.97-2.31,52.55-10.87,105.12-21.63,157.66-32.49,17.77-3.67,35.56-7.29,53.19-11.55,6.81-1.64,8.44.44,7.07,6.53-3.03,13.42-2.63,27.06-2.71,40.67-.03,5.25-1.15,9.93-7.12,11.42-23.11,5.76-46.22,11.48-69.35,17.16-1.44.35-2.99.27-5.4.47Z"/>
    <path class="cls-22" d="m1200.19,1292.15c-14.83-3.75-30.96-7.75-47.04-11.91-35.23-9.11-30.29-1.39-31.44-38.23-.07-2.27-.08-4.54-.27-6.8-1.65-19.48-1.5-20.25,17.25-16.46,66.26,13.39,132.41,27.35,198.58,41.17,1.73.36,3.29,1.57,4.93,2.38-1.33.62-2.59,1.53-3.99,1.82-44.78,9.21-89.58,18.37-134.37,27.52-.74.15-1.5.21-3.64.51Z"/>
  </g>
  <path class="cls-12" d="m246.96,1507.81c12.55-4.19,24.65-9.42,36.87-14.33,21.69-8.71,42.59-19.14,63.23-30.03,54.53-28.78,107.95-59.7,163.33-86.85,59.43-29.14,120.4-54.55,184.62-71.52,35.67-9.42,71.85-15.77,108.59-18.48,44.49-3.28,88.02,1.58,130.23,16.84,19.34,6.99,38.63,14.04,57.14,23.05,3.73,1.82,6.71.39,9.74-1.04,21.55-10.14,43.72-18.73,66.83-24.35,38.41-9.33,77.35-14.67,117.03-12.01,44.57,2.99,87.37,13.39,128.64,30.53,22.32,9.27,44.8,18.47,68.8,22.5,24.15,4.06,48.36,6.68,72.11-2.98,25.79-10.49,37.03-38.25,25.59-63.58-8.82-19.54-23.62-30.39-44.78-34.29-18.61-3.43-36.85-4.81-55.25.39-12.69,3.59-24.23,9.12-33.47,20.18-.81-5.47,1.52-8.9,3.35-12.36,19.07-36.1,49.27-56.12,89.51-60.97,29.46-3.55,58.64-2.65,86.46,9.27,26.59,11.39,45.58,31.06,58.2,56.64,14.69,29.79,17.65,61.22,7.89,92.99-10.29,33.5-31.83,57.55-65.36,69.21-44.13,15.35-87.97,14.74-131.51-3.44-24.13-10.08-46.96-22.84-70.99-33.09-48.81-20.82-99-37.31-151.74-43.89-35.69-4.46-71.73-5.38-107.06,4.57-9.71,2.73-19.05,6.38-28.16,10.68-4.28,2.02-3.8,4.11-.8,7.23,7.76,8.08,16.74,10.83,27.86,8.77,17.71-3.28,35.73-4.11,53.7-4.67,26.53-.83,52.41,3.83,77.98,10.4,36.39,9.35,70.76,24.41,105.78,37.62,32.46,12.25,63.44,27.98,95.62,40.92,23.75,9.55,48.3,15.73,73.71,18.85,43.73,5.38,85.08-2.64,124.96-20.7,54.28-24.58,80.3-69.52,91.28-125.43,4.43-22.53,4.37-45.11-1.07-67.48-9.79-40.34-32.17-72.68-64.8-97.65-39.11-29.92-84.09-46.33-132.43-53.78-38.79-5.98-76.83-2.41-113.64,11.43-38.09,14.32-68.21,38.77-90.78,72.64-5.11,7.67-5.29,7.45-10.2-.31-14.11-22.29-25.03-45.93-28.66-72.27-4.34-31.41-.81-61.99,12.44-91.01,21.21-46.43,55.86-80.14,100.51-103.81,38.54-20.43,79.84-28.46,123.39-26.46,22.91,1.05,45.83,1.77,68.44,5.67,38.16,6.58,75.15,17.59,109.34,35.85,59.29,31.65,104.47,77.79,135.74,137.39,17.14,32.67,29.15,67.09,34.51,103.65,2.81,19.14,2.43,38.5,1.82,57.77-1.81,57.7-15.38,112.55-41.12,164.26-21.34,42.88-53.1,76.3-92.85,102.78-36.44,24.27-74.88,44.04-117.25,55.55-31.09,8.45-62.69,14.07-95.05,12.34-38.26-2.05-75.16-10.82-111.27-23.52-46.61-16.39-89.82-40.19-134.46-60.88-32.88-15.24-66.71-27.72-101.95-36.3-1.33-.32-3.12-1.42-4.02.43-.92,1.91.9,3.09,1.93,4.38,15.46,19.24,34.47,34.53,54.41,48.77,39.53,28.23,83.14,48.49,128.35,65.6.79.3,1.55.7,3.43,1.56-12.53.87-23.93-.29-35.11-1.51-23.57-2.57-47.12-5.5-70.46-9.86-34.7-6.48-69.01-14.63-102.68-25.15-49.02-15.32-96.2-34.79-138.59-64.46-7.38-5.17-14.44-10.78-20.95-17.01-3.37-3.22-6.54-4.36-11.46-3.17-28.22,6.85-56.67,12.69-85.18,18.21-1.84.36-4.3,0-4.7,2.43-.42,2.52,2.21,2.79,3.77,3.71,31.17,18.4,62.37,36.76,93.53,55.18,2.53,1.5,4.84,3.37,8.4,5.87-18.66.59-35.62-1.17-52.49-4.52-34.03-6.74-66.93-17.66-100.22-27.09-25.44-7.21-51.53-9.96-77.52-13.79-33.45-4.93-67.02-5.57-100.61-3.49-18.74,1.16-37.45,3.14-56.07,6.13-23.43,3.77-46.72,8.13-69.89,13.17-9.76,2.12-19.32,5.16-29.27,7.86.6-2.1,2.23-2.05,3.42-2.53,43.44-17.54,87.02-34.62,132.48-46.52,48.71-12.75,97.93-20.65,148.47-18.52,19.12.81,37.82,4.05,56.17,9.3,3.93,1.12,7.26.49,10.38-1.54,23.27-15.12,48.58-26.25,73.63-37.89,1.36-.63,2.71-1.29,4.03-2.01,5.97-3.23,6.03-4.28.3-7.88-18.92-11.88-39.76-19.12-61.41-23.51-33.09-6.7-66.64-8.88-100.31-5.32-34.65,3.66-69.05,8.85-102.77,18.09-38.62,10.59-76.39,23.5-113.38,38.84-22.77,9.44-44.44,21.2-67.06,30.87-31.93,13.66-65.07,23.53-99.17,30.41-30.71,6.2-61.65,9.66-92.94,10.48-5.7.15-11.38,1.28-17.07,1.96Z"/>
  <g>
    <g>
      <path class="cls-3" d="m156.03,1361.58c0,8.12-5.46,12.92-14.69,12.92h-23.92c-9.23,0-14.69-4.8-14.69-12.92v-39.13c0-12.55-6.72-21.04-23.92-21.04s-23.5,8.49-23.5,21.04v156.54c0,12.55,6.29,21.04,23.5,21.04s23.92-8.49,23.92-21.04v-39.5c0-8.12,5.46-12.55,14.69-12.55h23.92c9.23,0,14.69,4.43,14.69,12.55v39.5c0,38.4-24.34,57.22-77.23,57.22s-76.8-18.83-76.8-57.22v-156.54c0-38.4,23.92-57.22,76.8-57.22s77.23,18.83,77.23,57.22v39.13Z"/>
      <path class="cls-18" d="m78.8,1265.23c52.88,0,77.23,18.83,77.23,57.22v39.13c0,8.12-5.46,12.92-14.69,12.92h-23.92c-9.23,0-14.69-4.8-14.69-12.92v-39.13c0-12.55-6.72-21.04-23.92-21.04s-23.5,8.49-23.5,21.04v156.54c0,12.55,6.29,21.04,23.5,21.04s23.92-8.49,23.92-21.04v-39.5c0-8.12,5.46-12.55,14.69-12.55h23.92c9.23,0,14.69,4.43,14.69,12.55v39.5c0,38.4-24.34,57.22-77.23,57.22S2,1517.38,2,1478.99v-156.54c0-38.4,23.92-57.22,76.8-57.22m0-2c-26.97,0-46.41,4.78-59.44,14.62-13.03,9.84-19.37,24.43-19.37,44.61v156.54c0,20.18,6.34,34.77,19.37,44.61,13.03,9.84,32.47,14.62,59.44,14.62s46.51-4.78,59.64-14.61c13.18-9.87,19.58-24.46,19.58-44.61v-39.5c0-9.11-6.24-14.55-16.69-14.55h-23.92c-10.45,0-16.69,5.44-16.69,14.55v39.5c0,12.81-7.17,19.04-21.92,19.04s-21.5-6.23-21.5-19.04v-156.54c0-12.81,7.03-19.04,21.5-19.04s21.92,6.23,21.92,19.04v39.13c0,9.2,6.39,14.92,16.69,14.92h23.92c10.29,0,16.69-5.72,16.69-14.92v-39.13c0-20.15-6.41-34.74-19.58-44.61-13.13-9.83-32.64-14.61-59.64-14.61h0Z"/>
    </g>
    <g>
      <path class="cls-3" d="m270.6,1412.16v-39.87c0-11.81-5.46-16.24-16.79-16.24s-16.37,4.43-16.37,16.24v8.49c0,8.12-5.46,12.55-14.69,12.55h-18.47c-9.23,0-14.69-4.43-14.69-12.55v-9.6c0-32.12,20.57-47.63,64.22-47.63s64.21,15.51,64.21,47.63v150.63c0,7.75-5.04,12.55-14.27,12.55h-18.89c-9.23,0-14.27-4.8-14.27-12.55v-1.85c-12.17,10.34-28.54,16.24-43.23,16.24-20.56,0-37.77-11.44-37.77-38.77v-37.66c0-32.12,20.57-47.63,64.22-47.63h16.79Zm-16.79,31.38c-10.91,0-16.37,4.8-16.37,16.25v24.74c0,11.81,4.62,16.24,15.95,16.24s17.21-4.8,17.21-16.61v-40.61h-16.79Z"/>
      <path class="cls-20" d="m253.82,1323.56c43.65,0,64.21,15.51,64.21,47.63v150.63c0,7.75-5.04,12.55-14.27,12.55h-18.89c-9.23,0-14.27-4.8-14.27-12.55v-1.85c-12.17,10.34-28.54,16.24-43.23,16.24-20.56,0-37.77-11.44-37.77-38.77v-37.66c0-32.12,20.57-47.63,64.22-47.63h16.79v-39.87c0-11.81-5.46-16.24-16.79-16.24s-16.37,4.43-16.37,16.24v8.49c0,8.12-5.46,12.55-14.69,12.55h-18.47c-9.23,0-14.69-4.43-14.69-12.55v-9.6c0-32.12,20.57-47.63,64.22-47.63m-.42,177.21c11.33,0,17.21-4.8,17.21-16.61v-40.61h-16.79c-10.91,0-16.37,4.8-16.37,16.25v24.74c0,11.81,4.62,16.24,15.95,16.24m.42-179.21c-44.56,0-66.22,16.23-66.22,49.63v9.6c0,9.11,6.24,14.55,16.69,14.55h18.47c10.45,0,16.69-5.44,16.69-14.55v-8.49c0-10.25,4.03-14.24,14.37-14.24s14.79,3.99,14.79,14.24v37.87h-14.79c-44.56,0-66.22,16.23-66.22,49.63v37.66c0,13.47,3.98,23.94,11.83,31.1,6.92,6.32,16.58,9.66,27.95,9.66,14.26,0,29.43-5.25,41.36-14.19.92,7.78,6.81,12.35,16.14,12.35h18.89c10.19,0,16.27-5.44,16.27-14.55v-150.63c0-33.39-21.66-49.63-66.21-49.63h0Zm-.42,177.21c-10.3,0-13.95-3.73-13.95-14.24v-24.74c0-9.99,4.3-14.25,14.37-14.25h14.79v38.61c0,10.24-4.55,14.61-15.21,14.61h0Z"/>
    </g>
    <g>
      <path class="cls-3" d="m351.6,1337.96c0-8.12,5.46-12.55,14.69-12.55h18.47c9.23,0,14.69,4.43,14.69,12.55v1.85c11.75-10.34,28.12-16.24,42.81-16.24,20.57,0,37.77,11.45,37.77,38.77v135.12c0,27.32-17.21,38.77-37.77,38.77-14.69,0-31.06-5.91-42.81-16.24v75.68c0,8.12-5.46,12.55-14.69,12.55h-18.47c-9.23,0-14.69-4.43-14.69-12.55v-257.7Zm81,36.92c0-11.45-5.04-16.24-16.37-16.24s-16.79,5.17-16.79,16.98v108.54c0,11.81,5.46,16.61,16.79,16.61s16.37-4.43,16.37-16.24v-109.65Z"/>
      <path class="cls-21" d="m442.25,1323.56c20.57,0,37.77,11.45,37.77,38.77v135.12c0,27.32-17.21,38.77-37.77,38.77-14.69,0-31.06-5.91-42.81-16.24v75.68c0,8.12-5.46,12.55-14.69,12.55h-18.47c-9.23,0-14.69-4.43-14.69-12.55v-257.7c0-8.12,5.46-12.55,14.69-12.55h18.47c9.23,0,14.69,4.43,14.69,12.55v1.85c11.75-10.34,28.12-16.24,42.81-16.24m-26.02,177.21c11.33,0,16.37-4.43,16.37-16.24v-109.65c0-11.45-5.04-16.24-16.37-16.24s-16.79,5.17-16.79,16.98v108.54c0,11.81,5.46,16.61,16.79,16.61m26.02-179.21c-14.13,0-29.45,5.35-40.95,14.13-.97-7.74-7-12.29-16.55-12.29h-18.47c-10.45,0-16.69,5.44-16.69,14.55v257.7c0,9.11,6.24,14.55,16.69,14.55h18.47c10.45,0,16.69-5.44,16.69-14.55v-71.47c11.48,8.72,26.73,14.03,40.81,14.03,11.36,0,21.03-3.34,27.95-9.66,7.85-7.17,11.83-17.63,11.83-31.1v-135.12c0-13.47-3.98-23.94-11.83-31.1-6.92-6.32-16.58-9.66-27.95-9.66h0Zm-26.02,177.21c-10.5,0-14.79-4.23-14.79-14.61v-108.54c0-10.5,4.42-14.98,14.79-14.98s14.37,3.99,14.37,14.24v109.65c0,10.38-3.89,14.24-14.37,14.24h0Z"/>
    </g>
    <g>
      <path class="cls-3" d="m526.19,1325.4v-45.78c0-8.12,5.46-12.55,14.69-12.55h18.47c9.23,0,14.69,4.43,14.69,12.55v45.78h20.98c9.23,0,14.69,4.43,14.69,12.55v7.02c0,8.12-5.46,12.92-14.69,12.92h-20.98v126.26c0,11.81,4.62,17.72,18.05,17.72h11.33c9.23,0,14.69,4.43,14.69,12.55v7.02c0,8.12-5.46,12.92-14.69,12.92h-11.33c-45.33,0-65.89-15.88-65.89-49.1v-127.37h-12.59c-9.23,0-14.69-4.8-14.69-12.92v-7.02c0-8.12,5.46-12.55,14.69-12.55h12.59Z"/>
      <path class="cls-13" d="m559.34,1267.07c9.23,0,14.69,4.43,14.69,12.55v45.78h20.98c9.23,0,14.69,4.43,14.69,12.55v7.02c0,8.12-5.46,12.92-14.69,12.92h-20.98v126.26c0,11.81,4.62,17.72,18.05,17.72h11.33c9.23,0,14.69,4.43,14.69,12.55v7.02c0,8.12-5.46,12.92-14.69,12.92h-11.33c-45.33,0-65.89-15.88-65.89-49.1v-127.37h-12.59c-9.23,0-14.69-4.8-14.69-12.92v-7.02c0-8.12,5.46-12.55,14.69-12.55h12.59v-45.78c0-8.12,5.46-12.55,14.69-12.55h18.47m0-2h-18.47c-10.45,0-16.69,5.44-16.69,14.55v43.78h-10.59c-10.45,0-16.69,5.44-16.69,14.55v7.02c0,9.2,6.39,14.92,16.69,14.92h10.59v125.37c0,17.51,5.48,30.14,16.75,38.61,11.19,8.41,27.92,12.49,51.15,12.49h11.33c10.29,0,16.69-5.72,16.69-14.92v-7.02c0-9.11-6.24-14.55-16.69-14.55h-11.33c-11.7,0-16.05-4.26-16.05-15.72v-124.26h18.98c10.29,0,16.69-5.72,16.69-14.92v-7.02c0-9.11-6.24-14.55-16.69-14.55h-18.98v-43.78c0-9.11-6.24-14.55-16.69-14.55h0Z"/>
    </g>
    <g>
      <path class="cls-3" d="m717.99,1412.16v-39.87c0-11.81-5.46-16.24-16.79-16.24s-16.37,4.43-16.37,16.24v8.49c0,8.12-5.46,12.55-14.69,12.55h-18.47c-9.23,0-14.69-4.43-14.69-12.55v-9.6c0-32.12,20.56-47.63,64.21-47.63s64.21,15.51,64.21,47.63v150.63c0,7.75-5.04,12.55-14.27,12.55h-18.89c-9.23,0-14.27-4.8-14.27-12.55v-1.85c-12.17,10.34-28.54,16.24-43.23,16.24-20.56,0-37.77-11.44-37.77-38.77v-37.66c0-32.12,20.56-47.63,64.21-47.63h16.79Zm-16.79,31.38c-10.91,0-16.37,4.8-16.37,16.25v24.74c0,11.81,4.62,16.24,15.95,16.24s17.21-4.8,17.21-16.61v-40.61h-16.79Z"/>
      <path class="cls-19" d="m701.2,1323.56c43.65,0,64.21,15.51,64.21,47.63v150.63c0,7.75-5.04,12.55-14.27,12.55h-18.89c-9.23,0-14.27-4.8-14.27-12.55v-1.85c-12.17,10.34-28.54,16.24-43.23,16.24-20.56,0-37.77-11.44-37.77-38.77v-37.66c0-32.12,20.56-47.63,64.21-47.63h16.79v-39.87c0-11.81-5.46-16.24-16.79-16.24s-16.37,4.43-16.37,16.24v8.49c0,8.12-5.46,12.55-14.69,12.55h-18.47c-9.23,0-14.69-4.43-14.69-12.55v-9.6c0-32.12,20.56-47.63,64.21-47.63m-.42,177.21c11.33,0,17.21-4.8,17.21-16.61v-40.61h-16.79c-10.91,0-16.37,4.8-16.37,16.25v24.74c0,11.81,4.62,16.24,15.95,16.24m.42-179.21c-44.56,0-66.21,16.23-66.21,49.63v9.6c0,9.11,6.24,14.55,16.69,14.55h18.47c10.45,0,16.69-5.44,16.69-14.55v-8.49c0-10.25,4.03-14.24,14.37-14.24s14.79,3.99,14.79,14.24v37.87h-14.79c-44.56,0-66.21,16.23-66.21,49.63v37.66c0,13.47,3.98,23.94,11.83,31.1,6.92,6.32,16.58,9.66,27.95,9.66,14.26,0,29.43-5.25,41.36-14.19.92,7.78,6.81,12.35,16.14,12.35h18.89c10.19,0,16.27-5.44,16.27-14.55v-150.63c0-33.39-21.66-49.63-66.21-49.63h0Zm-.42,177.21c-10.3,0-13.95-3.73-13.95-14.24v-24.74c0-9.99,4.3-14.25,14.37-14.25h14.79v38.61c0,10.24-4.55,14.61-15.21,14.61h0Z"/>
    </g>
    <g>
      <path class="cls-3" d="m822.91,1251.94c16.37,0,28.12,10.34,28.12,24.74s-11.75,24.74-28.12,24.74-28.12-9.97-28.12-24.74,11.33-24.74,28.12-24.74Zm23.92,269.51c0,8.12-5.46,12.92-14.69,12.92h-18.47c-9.23,0-14.69-4.8-14.69-12.92v-183.49c0-8.12,5.46-12.55,14.69-12.55h18.47c9.23,0,14.69,4.43,14.69,12.55v183.49Z"/>
      <path class="cls-15" d="m822.91,1251.94c16.37,0,28.12,10.34,28.12,24.74s-11.75,24.74-28.12,24.74-28.12-9.97-28.12-24.74,11.33-24.74,28.12-24.74m9.23,73.47c9.23,0,14.69,4.43,14.69,12.55v183.49c0,8.12-5.46,12.92-14.69,12.92h-18.47c-9.23,0-14.69-4.8-14.69-12.92v-183.49c0-8.12,5.46-12.55,14.69-12.55h18.47m-9.23-75.47c-17.73,0-30.12,10.99-30.12,26.74,0,7.84,2.92,14.55,8.44,19.41,5.45,4.79,12.95,7.33,21.68,7.33,17.73,0,30.12-10.99,30.12-26.74s-12.67-26.74-30.12-26.74h0Zm9.23,73.47h-18.47c-10.45,0-16.69,5.44-16.69,14.55v183.49c0,9.2,6.4,14.92,16.69,14.92h18.47c10.29,0,16.69-5.72,16.69-14.92v-183.49c0-9.11-6.24-14.55-16.69-14.55h0Z"/>
    </g>
    <g>
      <path class="cls-3" d="m1008.83,1521.81c0,7.75-5.04,12.55-14.27,12.55h-18.89c-9.23,0-14.27-4.8-14.27-12.55v-146.94c0-11.45-5.04-16.24-16.37-16.24s-16.79,5.17-16.79,16.98v146.2c0,7.75-5.46,12.55-14.69,12.55h-18.47c-9.23,0-14.69-4.8-14.69-12.55v-183.86c0-8.12,5.46-12.55,14.69-12.55h18.47c9.23,0,14.69,4.43,14.69,12.55v1.85c11.75-10.34,28.12-16.24,42.81-16.24,20.57,0,37.77,11.45,37.77,38.77v159.49Z"/>
      <path class="cls-16" d="m971.05,1323.56c20.57,0,37.77,11.45,37.77,38.77v159.49c0,7.75-5.04,12.55-14.27,12.55h-18.89c-9.23,0-14.27-4.8-14.27-12.55v-146.94c0-11.45-5.04-16.24-16.37-16.24s-16.79,5.17-16.79,16.98v146.2c0,7.75-5.46,12.55-14.69,12.55h-18.47c-9.23,0-14.69-4.8-14.69-12.55v-183.86c0-8.12,5.46-12.55,14.69-12.55h18.47c9.23,0,14.69,4.43,14.69,12.55v1.85c11.75-10.34,28.12-16.24,42.81-16.24m0-2c-14.13,0-29.45,5.34-40.95,14.13-.97-7.74-7-12.29-16.55-12.29h-18.47c-10.45,0-16.69,5.44-16.69,14.55v183.86c0,8.98,6.39,14.55,16.69,14.55h18.47c10.29,0,16.69-5.58,16.69-14.55v-146.2c0-10.5,4.42-14.98,14.79-14.98s14.37,3.99,14.37,14.24v146.94c0,9.11,6.08,14.55,16.27,14.55h18.89c10.19,0,16.27-5.44,16.27-14.55v-159.49c0-13.47-3.98-23.94-11.83-31.1-6.92-6.32-16.58-9.66-27.95-9.66h0Z"/>
    </g>
    <g>
      <path class="cls-3" d="m1103.67,1536.21c-44.07,0-64.21-15.14-64.21-47.62v-16.98c0-8.12,5.04-12.92,14.27-12.92h18.89c9.23,0,14.27,4.8,14.27,12.92v15.87c0,11.45,5.46,16.25,16.79,16.25s16.37-4.8,16.37-16.25c0-15.14-2.52-18.46-17.21-30.27l-34.84-28.06c-21.41-16.98-28.54-28.43-28.54-57.96,0-32.12,20.15-47.63,64.21-47.63s64.21,15.51,64.21,47.63v16.98c0,8.12-5.46,12.55-14.69,12.55h-18.47c-9.23,0-14.69-4.43-14.69-12.55v-15.88c0-11.81-5.46-16.24-16.37-16.24s-16.79,4.43-16.79,16.24c0,15.14,2.52,18.09,17.21,30.27l34.84,28.06c21.41,16.98,28.96,28.43,28.96,57.96,0,32.12-20.57,47.62-64.21,47.62Z"/>
      <path class="cls-14" d="m1103.67,1323.56c43.65,0,64.21,15.51,64.21,47.63v16.98c0,8.12-5.46,12.55-14.69,12.55h-18.47c-9.23,0-14.69-4.43-14.69-12.55v-15.88c0-11.81-5.46-16.24-16.37-16.24s-16.79,4.43-16.79,16.24c0,15.14,2.52,18.09,17.21,30.27l34.84,28.06c21.41,16.98,28.96,28.43,28.96,57.96,0,32.12-20.57,47.62-64.21,47.62s-64.21-15.14-64.21-47.62v-16.98c0-8.12,5.04-12.92,14.27-12.92h18.89c9.23,0,14.27,4.8,14.27,12.92v15.87c0,11.45,5.46,16.25,16.79,16.25s16.37-4.8,16.37-16.25c0-15.14-2.52-18.46-17.21-30.27l-34.84-28.06c-21.41-16.98-28.54-28.43-28.54-57.96,0-32.12,20.15-47.63,64.21-47.63m0-2c-22.59,0-38.89,3.98-49.83,12.17-11.02,8.25-16.38,20.5-16.38,37.46,0,15.44,1.93,25.79,6.46,34.6,4.2,8.17,10.81,15.39,22.83,24.93l34.82,28.05c15.34,12.34,16.46,15.38,16.46,28.71,0,9.99-4.3,14.25-14.37,14.25s-14.79-4.13-14.79-14.25v-15.87c0-9.34-6.08-14.92-16.27-14.92h-18.89c-10.19,0-16.27,5.58-16.27,14.92v16.98c0,17.1,5.36,29.4,16.39,37.6,10.88,8.09,27.17,12.02,49.83,12.02,44.56,0,66.21-16.23,66.21-49.62,0-15.36-2-25.72-6.68-34.62-4.97-9.45-12.8-16.79-23.03-24.91l-34.82-28.05c-14.6-12.11-16.46-14.49-16.46-28.72,0-10.25,4.15-14.24,14.79-14.24s14.37,3.99,14.37,14.24v15.88c0,9.11,6.24,14.55,16.69,14.55h18.47c10.45,0,16.69-5.44,16.69-14.55v-16.98c0-33.39-21.66-49.63-66.21-49.63h0Z"/>
    </g>
  </g>
  <g>
    <g>
      <path class="cls-2" d="m144.19,1760.9c-24.4,0-48.8-20.92-71.12-34.16-7.67,8.72-16.04,13.6-25.8,14.29l-4.53.35c-16.73,0-24.05-9.41-24.05-19.52,0-9.06,5.58-18.48,14.64-24.05,5.23-2.79,10.11-4.18,14.99-4.18,3.83,0,8.02.7,12.2,2.09,20.22-49.5,32.07-107.02,52.99-158.96l-1.74-.35c-15.34,0-48.11,61.36-51.25,74.6l-.35,4.53c0,1.74.35,2.79,1.05,3.14,1.74.35,2.79,1.74,2.79,3.49,0,1.04-.7,2.44-2.44,3.14-4.53,1.39-10.11,3.14-15.69,3.14-3.14,0-6.27-.7-9.06-2.09-4.53-2.79-5.93-7.32-5.93-12.2,0-2.79.35-5.93,1.04-8.72,4.18-15.69,16.73-38,31.72-55.08,12.9-14.99,27.54-26.14,40.44-27.19l6.28-.35c13.59,0,34.51,3.49,34.51,16.38,0,2.09-.7,4.18-1.74,6.62-20.57,50.9-34.51,113.3-57.17,160.36,22.31,11.5,49.5,29.98,72.51,29.98,3.83,0,7.67-.7,11.16-1.74l1.05-.35c1.74,0,3.49,1.74,3.49,3.83l-.7,1.74c-8.02,11.16-16.04,20.92-26.5,21.26h-2.79Zm-94.47-45.32c-2.44-.7-5.58-1.39-8.37-1.39-2.09,0-4.18.35-5.93,1.39-1.39.7-2.44,2.44-2.44,4.18,0,2.09,1.04,3.49,4.88,3.83h.35c4.88,0,8.71-4.53,11.5-8.02Z"/>
      <path class="cls-17" d="m110.38,1522.8c13.59,0,34.51,3.49,34.51,16.38,0,2.09-.7,4.18-1.74,6.62-20.57,50.9-34.51,113.3-57.17,160.36,22.31,11.5,49.5,29.98,72.51,29.98,3.83,0,7.67-.7,11.16-1.74l1.05-.35c1.74,0,3.49,1.74,3.49,3.83l-.7,1.74c-8.02,11.16-16.04,20.92-26.5,21.26h-2.79c-24.4,0-48.8-20.92-71.12-34.16-7.67,8.72-16.04,13.6-25.8,14.29l-4.53.35c-16.73,0-24.05-9.41-24.05-19.52,0-9.06,5.58-18.48,14.64-24.05,5.23-2.79,10.11-4.18,14.99-4.18,3.83,0,8.02.7,12.2,2.09,20.22-49.5,32.07-107.02,52.99-158.96l-1.74-.35c-15.34,0-48.11,61.36-51.25,74.6l-.35,4.53c0,1.74.35,2.79,1.05,3.14,1.74.35,2.79,1.74,2.79,3.49,0,1.04-.7,2.44-2.44,3.14-4.53,1.39-10.11,3.14-15.69,3.14-3.14,0-6.27-.7-9.06-2.09-4.53-2.79-5.93-7.32-5.93-12.2,0-2.79.35-5.93,1.04-8.72,4.18-15.69,16.73-38,31.72-55.08,12.9-14.99,27.54-26.14,40.44-27.19l6.28-.35m-72.51,200.8h.35c4.88,0,8.71-4.53,11.5-8.02-2.44-.7-5.58-1.39-8.37-1.39-2.09,0-4.18.35-5.93,1.39-1.39.7-2.44,2.44-2.44,4.18,0,2.09,1.04,3.49,4.88,3.83m72.51-202.8h-.11s-6.28.35-6.28.35h-.03s-.03,0-.03,0c-12.34,1-27.18,10.9-41.79,27.88-14.81,16.87-27.73,39.33-32.14,55.87-.72,2.88-1.11,6.15-1.11,9.23,0,6.42,2.31,11.1,6.88,13.9l.07.05.08.04c3.01,1.51,6.46,2.3,9.96,2.3,5.8,0,11.49-1.75,16.07-3.16l.2-.06.08-.02.08-.03c2.73-1.09,3.7-3.37,3.7-4.99,0-2.49-1.46-4.52-3.7-5.26-.06-.21-.13-.61-.13-1.29l.33-4.29c1.59-6.41,10.25-24.51,20.77-41.53,11.39-18.43,21.46-29.89,27.37-31.25-10,25.27-18.01,52.02-25.77,77.91-8.1,27.04-15.76,52.62-25.52,76.81-3.73-1.07-7.52-1.64-11.04-1.64-5.15,0-10.36,1.45-15.93,4.42l-.05.03-.05.03c-9.47,5.83-15.59,15.94-15.59,25.76s6.82,21.52,26.05,21.52h.15s4.53-.36,4.53-.36c9.58-.68,18.11-5.18,26.03-13.73,4.66,2.82,9.36,5.91,14.3,9.18,18.22,12.01,37.07,24.43,56.43,24.43h2.85c11.51-.38,20.17-11.13,28.05-22.1l.14-.2.09-.23.7-1.74.14-.36v-.39c0-3.11-2.56-5.83-5.49-5.83h-.33l-.31.1-1.02.34c-3.66,1.1-7.21,1.65-10.55,1.65-17.69,0-38.58-11.6-57.01-21.84-4.47-2.48-8.72-4.85-12.87-7.02,12.57-26.57,22.61-58.22,32.32-88.85,7.49-23.61,15.23-48.03,24.06-69.88.97-2.27,1.89-4.77,1.89-7.37,0-13.57-19.67-18.38-36.51-18.38h0Zm-72.42,200.8c-2.97-.28-2.97-1.07-2.97-1.83,0-1.07.69-2.07,1.33-2.4l.07-.03.07-.04c1.23-.74,2.88-1.11,4.9-1.11,1.36,0,2.98.19,4.78.56-2.34,2.63-4.98,4.85-7.92,4.85h-.26Z"/>
    </g>
    <g>
      <path class="cls-2" d="m209.04,1723.94c-8.72,0-17.78-1.05-21.61-8.37-2.09-3.49-2.79-8.71-2.79-14.64,0-3.49.35-6.97.7-11.16-8.02,13.94-19.17,27.54-32.77,27.54h-.7c-16.73-.35-23.71-14.29-23.71-32.42,0-34.51,25.1-83.67,59.61-83.67h.35c9.06,0,16.38,3.14,20.57,9.76l2.44-6.28c1.74-2.79,4.88-3.83,9.06-3.83,8.02,0,18.82,4.88,18.82,10.46l-.35,1.4c-4.53,11.16-27.19,71.12-27.89,96.21,0,4.88.35,8.02,2.09,8.02,11.5-.35,33.47-44.97,43.58-66.93.7-1.74,1.74-2.09,3.14-2.09l1.74.35c1.05.35,1.74,1.39,1.74,2.79q0,.7-.35,1.74c-11.5,24.75-33.12,70.42-49.5,71.12h-4.18Zm-14.99-71.81c1.74-4.53,4.88-13.95,4.88-21.61,0-4.88-1.39-8.72-5.23-9.76l-2.09-.35c-15.69,0-35.56,47.41-35.56,67.98,0,5.93,1.74,9.41,5.23,9.41,10.46-.35,29.28-36.95,32.77-45.67Z"/>
      <path class="cls-27" d="m220.2,1600.89c8.02,0,18.82,4.88,18.82,10.46l-.35,1.4c-4.53,11.16-27.19,71.12-27.89,96.21,0,4.88.35,8.02,2.09,8.02,11.5-.35,33.47-44.97,43.58-66.93.7-1.74,1.74-2.09,3.14-2.09l1.74.35c1.05.35,1.74,1.39,1.74,2.79q0,.7-.35,1.74c-11.5,24.75-33.12,70.42-49.5,71.12h-4.18c-8.72,0-17.78-1.05-21.61-8.37-2.09-3.49-2.79-8.71-2.79-14.64,0-3.49.35-6.97.7-11.16-8.02,13.94-19.17,27.54-32.77,27.54h-.7c-16.73-.35-23.71-14.29-23.71-32.42,0-34.51,25.1-83.67,59.61-83.67h.35c9.06,0,16.38,3.14,20.57,9.76l2.44-6.28c1.74-2.79,4.88-3.83,9.06-3.83m-58.92,96.91c10.46-.35,29.28-36.95,32.77-45.67,1.74-4.53,4.88-13.95,4.88-21.61,0-4.88-1.39-8.72-5.23-9.76l-2.09-.35c-15.69,0-35.56,47.41-35.56,67.98,0,5.93,1.74,9.41,5.23,9.41m58.92-98.91c-5.23,0-8.75,1.56-10.76,4.78l-.1.16-.07.18-1.15,2.95c-4.58-5.06-11.41-7.71-20-7.71h-.35c-16.39,0-32.17,10.59-44.43,29.82-10.6,16.61-17.18,38.01-17.18,55.85,0,21.53,9.35,34.08,25.66,34.42h.74c10.42,0,20.54-7.24,30.15-21.53-.05,1.06-.08,2.1-.08,3.15,0,7.06,1,12.17,3.05,15.62,4.37,8.27,14.26,9.39,23.36,9.39h4.27c15.82-.67,33.97-35.13,51.23-72.27l.05-.1.04-.11c.39-1.16.45-1.38.45-2.38,0-2.22-1.22-4.06-3.11-4.69l-.12-.04-.12-.02-1.74-.35-.19-.04h-.2c-1.56,0-3.77.34-4.97,3.3-5.2,11.29-13.08,27.61-21.15,41.35-11.94,20.33-17.87,23.88-20.19,24.32-.22-.6-.49-2.12-.49-5.94.68-24.04,22.4-82.34,27.74-95.49l.05-.13.03-.14.35-1.4.06-.24v-.25c0-3.37-2.66-6.6-7.49-9.1-4.07-2.1-9.05-3.36-13.34-3.36h0Zm-58.95,96.91c-2.78-.04-3.2-4.65-3.2-7.41,0-9.7,4.81-26.5,11.7-40.84,7.39-15.38,15.68-24.98,21.71-25.14l1.81.3c2.43.72,3.67,3.34,3.67,7.81,0,7.93-3.63,18-4.75,20.9-1.75,4.38-7.3,15.58-13.6,25.63-10.44,16.65-15.58,18.68-17.34,18.76h0Z"/>
    </g>
    <g>
      <path class="cls-2" d="m311.19,1715.58c-6.27-10.46-6.62-35.56-9.06-49.15-.7-3.83-2.44-5.58-4.53-5.58-1.39,0-2.79.35-4.53,1.74-3.14,2.79-15.34,18.13-16.38,19.87-4.88,16.73-8.02,30.68-8.37,38,0,3.14-2.09,3.49-4.88,3.49h-1.74c-12.2,0-18.83-2.09-19.87-12.9,0-27.54,38-133.87,47.06-155.13,1.05-2.79,4.53-3.83,8.72-3.83,8.71,0,20.57,4.88,20.57,10.46l-.35,1.39c-3.83,9.76-19.52,51.25-32.07,89.94,10.81-16.38,36.95-50.2,51.94-52.99l3.83-.35c7.67,0,20.92,3.49,20.92,8.37,0,1.74-1.05,3.49-3.14,3.49l-2.44-.35c-9.41,0-41.83,28.59-50.2,36.6l4.88-.35c3.49,0,6.97.35,9.41,1.39,12.55,6.27,7.32,65.89,16.04,66.93,9.06-1.74,23.01-19.17,44.62-66.58.7-1.39,1.74-2.09,2.79-2.09,2.09,0,3.83,1.74,3.83,3.49,0,.35,0,.7-.35,1.39-22.31,49.85-37.65,71.12-52.99,71.12-6.28,0-20.22-1.74-23.71-8.37Z"/>
      <path class="cls-34" d="m297.59,1552.08c8.71,0,20.57,4.88,20.57,10.46l-.35,1.39c-3.83,9.76-19.52,51.25-32.07,89.94,10.81-16.38,36.95-50.2,51.94-52.99l3.83-.35c7.67,0,20.92,3.49,20.92,8.37,0,1.74-1.05,3.49-3.14,3.49l-2.44-.35c-9.41,0-41.83,28.59-50.2,36.6l4.88-.35c3.49,0,6.97.35,9.41,1.39,12.55,6.27,7.32,65.89,16.04,66.93,9.06-1.74,23.01-19.17,44.62-66.58.7-1.39,1.74-2.09,2.79-2.09,2.09,0,3.83,1.74,3.83,3.49,0,.35,0,.7-.35,1.39-22.31,49.85-37.65,71.12-52.99,71.12-6.28,0-20.22-1.74-23.71-8.37-6.27-10.46-6.62-35.56-9.06-49.15-.7-3.83-2.44-5.58-4.53-5.58-1.39,0-2.79.35-4.53,1.74-3.14,2.79-15.34,18.13-16.38,19.87-4.88,16.73-8.02,30.68-8.37,38,0,3.14-2.09,3.49-4.88,3.49h-1.74c-12.2,0-18.83-2.09-19.87-12.9,0-27.54,38-133.87,47.06-155.13,1.05-2.79,4.53-3.83,8.72-3.83m0-2c-7.11,0-9.68,2.76-10.57,5.09-9.48,22.25-47.21,128.25-47.21,155.88v.19c1.32,13.57,11.53,14.71,21.87,14.71h1.74c1.88,0,6.85,0,6.88-5.43.34-6.9,3.33-20.45,8.21-37.21,1.52-2.22,12.87-16.51,15.84-19.18,1.33-1.05,2.26-1.27,3.24-1.27,1.67,0,2.35,2.75,2.56,3.93.73,4.09,1.28,9.31,1.86,14.84,1.34,12.79,2.87,27.29,7.42,34.94,1.82,3.4,5.86,5.96,12.03,7.62,4.85,1.3,10.11,1.77,13.42,1.77,16.16,0,31.52-20.26,54.8-72.26.5-1.01.54-1.66.54-2.25,0-2.92-2.73-5.49-5.83-5.49-1.87,0-3.58,1.2-4.58,3.2l-.02.03v.03c-23.06,50.54-35.9,63.56-42.71,65.34-.36-.32-1.43-1.69-2.42-7.44-.84-4.9-1.38-11.38-1.95-18.25-1.8-21.7-3.64-37.34-10.88-40.96l-.05-.03-.05-.02c-2.3-.99-5.53-1.51-9.62-1.55,5.12-4.65,12.76-11.3,20.49-17.39,16.6-13.1,22.35-14.79,24.13-14.86l2.28.33.14.02h.14c2.93,0,5.14-2.36,5.14-5.49,0-7.28-16.39-10.37-22.92-10.37h-.18s-3.83.36-3.83.36h-.09s-.09.03-.09.03c-13.14,2.45-33.14,26.11-45.44,42.75,11.82-35.23,24.67-69.04,27.8-77.01l.05-.12.03-.13.35-1.39.06-.24v-.25c0-3.4-2.9-6.64-8.16-9.13-4.41-2.09-9.79-3.33-14.41-3.33h0Z"/>
    </g>
    <g>
      <path class="cls-2" d="m414.73,1723.94c-29.63-1.05-40.44-18.48-40.44-40.44,0-10.81,2.44-22.31,6.62-33.47,8.37-22.31,26.84-49.15,52.29-49.15h1.39c13.25.35,24.05,6.97,24.05,20.22v.7c-.7,24.75-26.14,55.08-44.97,55.08-3.49,0-6.97-1.04-9.76-3.49-.7,4.18-1.39,8.71-1.39,13.25,0,13.25,3.83,26.84,15.34,29.28l3.83.35c2.09,0,4.88-.35,7.67-1.04,12.2-4.53,29.63-19.52,51.59-65.19.7-1.39,1.74-2.09,2.79-2.09.7,0,1.39.35,2.09.7,1.04.35,1.74,1.39,1.74,2.79,0,0,0,.7-.35,1.39-23.36,48.8-42.53,64.49-56.47,69.37-4.53,1.39-8.71,1.74-12.2,1.74h-3.83Zm32.07-101.1c0-2.09-.7-3.14-1.74-3.83-1.05-.7-1.74-.7-2.79-.7-8.02,0-19.17,14.64-22.66,19.52-5.23,8.02-9.76,17.08-12.55,25.45,1.39,1.04,3.14,1.39,4.88,1.39,14.99,0,34.86-30.68,34.86-41.83Z"/>
      <path class="cls-28" d="m434.6,1600.89c13.25.35,24.05,6.97,24.05,20.22v.7c-.7,24.75-26.14,55.08-44.97,55.08-3.49,0-6.97-1.04-9.76-3.49-.7,4.18-1.39,8.71-1.39,13.25,0,13.25,3.83,26.84,15.34,29.28l3.83.35c2.09,0,4.88-.35,7.67-1.04,12.2-4.53,29.63-19.52,51.59-65.19.7-1.39,1.74-2.09,2.79-2.09.7,0,1.39.35,2.09.7,1.04.35,1.74,1.39,1.74,2.79,0,0,0,.7-.35,1.39-23.36,48.8-42.53,64.49-56.47,69.37-4.53,1.39-8.71,1.74-12.2,1.74h-3.83c-29.63-1.05-40.44-18.48-40.44-40.44,0-10.81,2.44-22.31,6.62-33.47,8.37-22.31,26.84-49.15,52.29-49.15h1.39m-22.66,63.8c14.99,0,34.86-30.68,34.86-41.83,0-2.09-.7-3.14-1.74-3.83-1.05-.7-1.74-.7-2.79-.7-8.02,0-19.17,14.64-22.66,19.52-5.23,8.02-9.76,17.08-12.55,25.45,1.39,1.04,3.14,1.39,4.88,1.39m22.69-65.8h-1.42c-12.16,0-23.61,5.67-34.02,16.85-8.15,8.75-15.3,20.68-20.15,33.6-4.42,11.78-6.75,23.59-6.75,34.17,0,26.4,15.05,41.47,42.37,42.44h.04s.04,0,.04,0h3.83c4.6,0,8.78-.6,12.79-1.83h.04s.04-.02.04-.02c19.34-6.77,38.19-29.79,57.62-70.4.52-1.04.54-2.06.54-2.26,0-2.16-1.15-3.96-2.96-4.63-.8-.4-1.76-.85-2.88-.85-1.87,0-3.58,1.2-4.58,3.2-17.62,36.65-34.57,58.23-50.4,64.17-2.44.6-4.97.95-6.99.96l-3.62-.33c-12.31-2.72-13.64-19.99-13.64-27.3,0-3.27.38-6.59.87-9.79,2.44,1.34,5.25,2.03,8.29,2.03,9.5,0,21.02-7.1,30.83-18.99,9.77-11.85,15.81-26.07,16.14-38.04v-.03s0-.03,0-.03v-.7c0-6.87-2.71-12.58-7.84-16.53-4.58-3.53-10.86-5.5-18.16-5.69h-.03Zm-13.36,40.08c9.84-13.76,17.46-18.65,21.01-18.65.94,0,1.14,0,1.68.36.34.23.85.57.85,2.17,0,5.09-4.8,15.14-11.41,23.9-7.53,9.98-15.55,15.94-21.46,15.94-.93,0-1.74-.12-2.43-.35,2.7-7.59,6.84-15.82,11.76-23.36h0Z"/>
    </g>
    <g>
      <path class="cls-2" d="m454.82,1777.63c-1.04-1.74-1.39-4.88-1.39-8.71v-.7c0-22.66,17.43-85.76,23.01-104.58,14.29-48.8,29.98-94.47,37.65-108.07,1.74-2.79,5.23-3.83,9.41-3.83,9.06,0,20.57,5.93,20.57,10.81l-.35,1.05c-4.88,10.81-37.3,103.19-39.74,117.83l6.62.35c5.93,0,11.16-.7,17.08-3.14,9.06-4.18,17.43-12.9,24.75-28.93.7-1.74,1.74-2.09,3.14-2.09,2.09.35,3.49.35,3.49,3.14l-.35,1.4c-7.67,17.08-16.73,27.89-28.93,32.77-5.93,2.79-12.9,3.83-20.57,3.83,6.62,6.97,9.06,16.04,9.06,25.45,0,6.97-1.39,14.29-2.79,21.61-3.83,17.08-17.08,53.34-38.35,53.34-8.71,0-17.78-3.49-22.31-11.5Zm53.69-43.58c1.39-6.62,3.14-13.94,3.14-20.57,0-9.06-2.44-17.43-10.81-23.01-7.32,30.68-20.22,75.3-20.22,88.2,0,1.4,0,2.44.35,3.14,11.16-3.14,22.66-25.8,27.54-47.76Z"/>
      <path class="cls-26" d="m523.49,1551.73c9.06,0,20.57,5.93,20.57,10.81l-.35,1.05c-4.88,10.81-37.3,103.19-39.74,117.83l6.62.35c5.93,0,11.16-.7,17.08-3.14,9.06-4.18,17.43-12.9,24.75-28.93.7-1.74,1.74-2.09,3.14-2.09,2.09.35,3.49.35,3.49,3.14l-.35,1.4c-7.67,17.08-16.73,27.89-28.93,32.77-5.93,2.79-12.9,3.83-20.57,3.83,6.62,6.97,9.06,16.04,9.06,25.45,0,6.97-1.39,14.29-2.79,21.61-3.83,17.08-17.08,53.34-38.35,53.34-8.71,0-17.78-3.49-22.31-11.5-1.04-1.74-1.39-4.88-1.39-8.71v-.7c0-22.66,17.43-85.76,23.01-104.58,14.29-48.8,29.98-94.47,37.65-108.07,1.74-2.79,5.23-3.83,9.41-3.83m-42.53,230.08c11.16-3.14,22.66-25.8,27.54-47.76,1.39-6.62,3.14-13.94,3.14-20.57,0-9.06-2.44-17.43-10.81-23.01-7.32,30.68-20.22,75.3-20.22,88.2,0,1.4,0,2.44.35,3.14m42.53-232.08c-5.39,0-9.13,1.61-11.11,4.77l-.02.04-.02.04c-7.41,13.15-22.97,57.76-37.83,108.49-6.42,21.67-23.09,82.82-23.09,105.14v.7c0,4.72.53,7.81,1.66,9.72,4.44,7.83,13.42,12.5,24.04,12.5s19.32-7.15,27.44-21.26c6.41-11.13,10.84-24.67,12.86-33.63v-.03s.01-.03.01-.03c1.39-7.29,2.82-14.83,2.82-21.99,0-9.38-2.31-17.28-6.89-23.56,6.75-.36,12.4-1.65,17.19-3.89,12.31-4.94,21.83-15.68,29.96-33.78l.07-.16.04-.17.35-1.4.06-.24v-.25c0-4.29-2.84-4.74-4.73-5.04l-.43-.07-.16-.03h-.17c-1.56,0-3.77.34-4.98,3.3-6.6,14.43-14.35,23.56-23.71,27.89-5.12,2.1-9.83,2.97-16.23,2.97l-4.25-.22c4.59-19.61,34.41-104.66,39.14-115.13l.04-.09.03-.1.35-1.05.1-.31v-.32c0-4.22-4.99-7.46-7.96-9.01-4.56-2.38-10.02-3.8-14.61-3.8h0Zm-40.88,229.25c0-.1,0-.21,0-.31,0-8.83,6.44-33.82,12.67-57.99,2.34-9.06,4.74-18.4,6.78-26.77,5.16,4.46,7.58,10.76,7.58,19.57,0,5.67-1.33,11.89-2.62,17.91-.16.76-.32,1.51-.48,2.25-4.77,21.49-14.94,40.47-23.93,45.34h0Z"/>
    </g>
    <g>
      <path class="cls-2" d="m601.23,1723.94c-8.37,0-20.57-.35-24.75-8.37-1.74-3.49-2.79-8.37-2.79-13.94,0-26.15,17.43-69.37,23.71-88.2-4.53.35-10.81,2.09-16.73,2.09-1.74,0-3.83,0-5.58-.7-5.23,13.59-8.37,20.57-16.38,38-.35,1.04-1.74,2.09-2.79,2.09-.7,0-1.04,0-1.74-.35-1.05-.35-2.09-1.04-2.09-3.14,0-.35,0-.7.35-1.4,8.37-18.48,10.81-24.05,16.73-38.35-3.14-2.44-4.53-5.93-4.53-9.76,0-4.88,1.74-10.11,3.49-14.64,1.04-2.79,4.88-3.83,8.37-3.83,4.18,0,8.71,1.39,8.71,4.18l-.35,1.05c-1.39,4.88-4.18,12.9-5.23,15.34,9.41-.35,17.43-3.14,24.75-3.14,8.71,0,17.43,6.62,18.83,15.69l.35,2.44c0,5.58-2.79,12.9-6.62,24.05-5.58,15.69-16.73,46.71-16.73,64.14l.7,5.93c.7,3.14,2.09,4.18,3.83,4.18,4.53,0,11.16-8.02,12.9-10.81,6.62-9.76,15.34-27.19,28.59-56.47.7-1.39,1.74-2.09,2.79-2.09s1.74.35,2.44.7c.7.35,1.39,1.39,1.39,2.79,0,.35,0,.7-.35,1.39-13.25,29.63-21.96,47.41-28.93,57.52-7.67,11.16-12.55,13.6-18.82,13.6h-3.49Z"/>
      <path class="cls-35" d="m576.48,1583.46c4.18,0,8.71,1.39,8.71,4.18l-.35,1.05c-1.39,4.88-4.18,12.9-5.23,15.34,9.41-.35,17.43-3.14,24.75-3.14,8.71,0,17.43,6.62,18.83,15.69l.35,2.44c0,5.58-2.79,12.9-6.62,24.05-5.58,15.69-16.73,46.71-16.73,64.14l.7,5.93c.7,3.14,2.09,4.18,3.83,4.18,4.53,0,11.16-8.02,12.9-10.81,6.62-9.76,15.34-27.19,28.59-56.47.7-1.39,1.74-2.09,2.79-2.09s1.74.35,2.44.7c.7.35,1.39,1.39,1.39,2.79,0,.35,0,.7-.35,1.39-13.25,29.63-21.96,47.41-28.93,57.52-7.67,11.16-12.55,13.6-18.82,13.6h-3.49c-8.37,0-20.57-.35-24.75-8.37-1.74-3.49-2.79-8.37-2.79-13.94,0-26.15,17.43-69.37,23.71-88.2-4.53.35-10.81,2.09-16.73,2.09-1.74,0-3.83,0-5.58-.7-5.23,13.59-8.37,20.57-16.38,38-.35,1.04-1.74,2.09-2.79,2.09-.7,0-1.04,0-1.74-.35-1.05-.35-2.09-1.04-2.09-3.14,0-.35,0-.7.35-1.4,8.37-18.48,10.81-24.05,16.73-38.35-3.14-2.44-4.53-5.93-4.53-9.76,0-4.88,1.74-10.11,3.49-14.64,1.04-2.79,4.88-3.83,8.37-3.83m0-2c-5.21,0-9.04,1.92-10.24,5.13-1.78,4.64-3.61,10.1-3.61,15.34,0,4.16,1.42,7.69,4.13,10.32-5.49,13.23-7.95,18.84-16.14,36.93-.5,1.01-.54,1.67-.54,2.25,0,1.74.58,4.01,3.33,4.99,1.05.5,1.76.5,2.51.5,1.87,0,3.97-1.52,4.64-3.34,7.8-16.97,10.96-24,15.74-36.34,1.52.28,3.05.28,4.36.28,3.76,0,7.62-.66,11.03-1.25.96-.16,1.89-.33,2.78-.46-.93,2.68-2.01,5.71-3.21,9.08-7.8,21.86-19.58,54.9-19.58,76.74,0,5.7,1.07,10.97,3,14.84,4.94,9.47,18.99,9.47,26.54,9.47h3.49c7.77,0,13.13-3.78,20.47-14.46,6.66-9.65,14.81-25.86,29.1-57.8.5-1.01.54-1.66.54-2.25,0-1.99-1-3.83-2.5-4.58-.77-.39-1.82-.91-3.34-.91-1.87,0-3.58,1.2-4.58,3.2l-.02.03-.02.04c-13.6,30.06-22.1,46.86-28.42,56.18l-.02.03-.02.03c-2.12,3.39-8.12,9.87-11.2,9.87-.42,0-1.28,0-1.86-2.52l-.67-5.71c.05-16.77,10.61-46.47,16.29-62.44l.33-.92c.45-1.3.87-2.53,1.28-3.71,3.29-9.48,5.46-15.74,5.46-21.02v-.14l-.02-.14-.35-2.44c-1.5-9.77-10.64-17.41-20.81-17.41-3.82,0-7.73.71-11.88,1.46-3.18.58-6.44,1.17-9.88,1.48,1.32-3.6,3.12-8.97,4.15-12.55l.34-1.01.1-.31v-.32c0-3.08-3.31-6.18-10.71-6.18h0Z"/>
    </g>
    <g>
      <path class="cls-2" d="m639.23,1683.86c0-35.91,24.05-82.97,56.47-82.97,2.79,0,5.58.35,8.72,1.05,16.73,4.18,21.61,19.87,21.61,36.25,0,10.11-2.09,20.92-4.53,28.93,11.5,0,24.05-5.93,29.98-17.43.7-1.39,1.74-1.74,2.79-1.74.7,0,1.39.35,2.09.7,1.04.35,1.39,1.39,1.39,2.44,0,.7,0,1.39-.35,2.09-6.97,13.25-21.61,20.92-35.56,20.92h-2.79c-7.67,21.96-24.75,49.85-48.8,49.85-21.96,0-31.03-17.78-31.03-40.09Zm64.49-15.34c-5.58-4.18-7.67-10.46-7.67-16.38,0-10.11,6.28-20.22,12.9-21.96-1.05-4.53-3.14-8.02-7.67-8.02h-1.74c-16.73,2.79-35.21,50.2-35.21,75.3,0,8.71,2.09,14.99,7.32,15.69h1.04c13.6,0,27.19-33.82,31.03-44.62Z"/>
      <path class="cls-36" d="m695.71,1600.89c2.79,0,5.58.35,8.72,1.05,16.73,4.18,21.61,19.87,21.61,36.25,0,10.11-2.09,20.92-4.53,28.93,11.5,0,24.05-5.93,29.98-17.43.7-1.39,1.74-1.74,2.79-1.74.7,0,1.39.35,2.09.7,1.04.35,1.39,1.39,1.39,2.44,0,.7,0,1.39-.35,2.09-6.97,13.25-21.61,20.92-35.56,20.92h-2.79c-7.67,21.96-24.75,49.85-48.8,49.85-21.96,0-31.03-17.78-31.03-40.09,0-35.91,24.05-82.97,56.47-82.97m-24.05,112.25h1.04c13.6,0,27.19-33.82,31.03-44.62-5.58-4.18-7.67-10.46-7.67-16.38,0-10.11,6.28-20.22,12.9-21.96-1.05-4.53-3.14-8.02-7.67-8.02h-1.74c-16.73,2.79-35.21,50.2-35.21,75.3,0,8.71,2.09,14.99,7.32,15.69m24.05-114.25c-15.58,0-30.53,10.29-42.09,28.97-10.26,16.56-16.38,37.5-16.38,56,0,12.12,2.64,22.34,7.63,29.55,5.68,8.2,14.46,12.54,25.39,12.54,11.5,0,22.29-5.85,32.07-17.4,9.52-11.23,15.32-24.66,18.14-32.45h1.38c15.41,0,30.41-8.84,37.33-21.99.58-1.16.58-2.23.58-3.02,0-2.07-.97-3.66-2.61-4.28-.8-.4-1.76-.86-2.88-.86-2.6,0-3.93,1.55-4.58,2.85-4.72,9.17-14.55,15.34-25.5,16.22,1.55-5.69,3.84-15.93,3.84-26.83,0-21.21-8-34.41-23.13-38.2h-.03s-.03-.01-.03-.01c-3.36-.75-6.27-1.09-9.15-1.09h0Zm4.01,25.27h1.57c1.76,0,3.88.59,5.26,4.78-6.84,3.19-12.48,13.39-12.48,23.2,0,6.95,2.58,12.94,7.31,17.04-1.67,4.55-5.78,15.14-11.23,24.71-6.42,11.28-12.45,17.25-17.44,17.25h-.9c-4.75-.77-5.47-8.89-5.47-13.69,0-11.97,4.38-29.72,11.16-45.22,7.15-16.34,15.44-26.82,22.22-28.08h0Z"/>
    </g>
    <g>
      <path class="cls-2" d="m801.34,1704.07c.7-25.45,20.22-81.92,20.57-86.11,0-1.04-.35-1.74-1.04-1.74-1.05,0-2.44,1.04-3.49,2.09-16.73,14.99-40.44,54.03-46.71,64.84-4.18,15.34-7.67,29.28-8.02,37.3,0,3.14-1.74,3.49-4.53,3.49h-1.74c-8.37,0-19.52-1.74-19.87-9.76,0-17.78,20.57-86.46,29.28-109.11,1.04-2.79,4.53-4.18,8.71-4.18,8.37,0,19.87,4.88,19.87,10.46l-.35,1.4c-2.79,6.62-14.29,41.13-15.34,43.92,5.23-7.67,11.16-16.38,17.43-24.4,10.46-13.59,25.1-31.37,39.74-31.37,8.71,0,16.04,5.23,16.04,14.64l-.35,4.18c-4.88,24.05-21.61,70.77-21.61,90.99,0,4.18.35,6.27,2.09,6.27,8.71-.7,14.99-12.2,39.39-66.93.7-1.39,1.74-2.09,2.79-2.09,2.09,0,3.83,1.39,3.83,3.49,0,.35,0,.7-.35,1.39-24.4,55.43-32.07,70.42-45.32,71.12l-9.76.35c-12.55,0-21.26-2.79-21.26-20.22Z"/>
      <path class="cls-38" d="m835.85,1600.89c8.71,0,16.04,5.23,16.04,14.64l-.35,4.18c-4.88,24.05-21.61,70.77-21.61,90.99,0,4.18.35,6.27,2.09,6.27,8.71-.7,14.99-12.2,39.39-66.93.7-1.39,1.74-2.09,2.79-2.09,2.09,0,3.83,1.39,3.83,3.49,0,.35,0,.7-.35,1.39-24.4,55.43-32.07,70.42-45.32,71.12l-9.76.35c-12.55,0-21.26-2.79-21.26-20.22.7-25.45,20.22-81.92,20.57-86.11,0-1.04-.35-1.74-1.04-1.74-1.05,0-2.44,1.04-3.49,2.09-16.73,14.99-40.44,54.03-46.71,64.84-4.18,15.34-7.67,29.28-8.02,37.3,0,3.14-1.74,3.49-4.53,3.49h-1.74c-8.37,0-19.52-1.74-19.87-9.76,0-17.78,20.57-86.46,29.28-109.11,1.04-2.79,4.53-4.18,8.71-4.18,8.37,0,19.87,4.88,19.87,10.46l-.35,1.4c-2.79,6.62-14.29,41.13-15.34,43.92,5.23-7.67,11.16-16.38,17.43-24.4,10.46-13.59,25.1-31.37,39.74-31.37m0-2c-14.58,0-28.48,15.45-41.33,32.16-3.19,4.08-6.29,8.33-9.25,12.54,3.78-11.11,8.9-26.04,10.59-30.06l.06-.14.04-.15.35-1.4.06-.24v-.25c0-7.23-13.06-12.46-21.87-12.46-5.34,0-9.3,2.05-10.59,5.48-8.29,21.54-29.41,91.26-29.41,109.82v.09c.33,7.53,8.1,11.67,21.87,11.67h1.74c1.95,0,6.51,0,6.53-5.44.36-8.03,3.99-22.3,7.88-36.57,2.32-3.98,28.21-48.02,46.19-64.13l.04-.04.04-.04c.32-.32.61-.58.88-.79-.54,2.12-1.89,6.61-3.3,11.3-5.77,19.16-16.51,54.83-17.03,73.78v.03s0,.03,0,.03c0,18.44,9.3,22.22,23.26,22.22h.07s9.76-.35,9.76-.35c7.65-.4,13.28-4.88,20.11-15.98,6.45-10.48,14.14-27.18,26.95-56.28.5-1.01.54-1.66.54-2.24,0-3.13-2.51-5.49-5.83-5.49-1.87,0-3.58,1.2-4.58,3.2l-.02.04-.02.04c-22.77,51.08-29.79,64.67-37.33,65.71-.15-.45-.33-1.56-.33-4.24,0-12.46,6.75-36.09,12.7-56.93,3.63-12.69,7.05-24.68,8.87-33.66l.02-.11v-.12s.36-4.18.36-4.18v-.08s0-.08,0-.08c0-9.8-7.42-16.64-18.04-16.64h0Z"/>
    </g>
    <g>
      <path class="cls-2" d="m884.66,1723.94c-8.37,0-16.38-1.05-19.52-8.37-1.74-3.83-2.79-9.41-2.79-15.69,0-27.19,14.29-72.51,27.19-107.37-6.97-.35-13.6-.35-19.17-.35-2.09-.35-3.49-2.09-3.49-3.49,0-1.74,1.39-3.49,3.49-3.49l21.61.35c4.53-11.85,8.72-21.96,12.2-29.63,1.05-3.14,4.53-4.18,8.71-4.18,9.06,0,21.61,5.58,21.61,10.81l-.35,1.05c-3.14,6.97-6.28,14.64-9.41,23.01l17.43.35c2.09,0,3.49,1.74,3.49,3.49s-1.39,3.49-3.83,3.49c-5.93-.35-12.55-.35-19.87-.35-10.81,32.07-22.66,67.98-29.63,97.61-.7,2.09-3.83,16.38-3.83,22.66,0,2.44.35,3.14,1.39,3.14,3.83,0,10.46-8.37,12.9-11.5,10.81-14.64,23.36-40.44,30.33-55.43.7-1.74,1.74-2.09,3.14-2.09.35,0,1.04,0,1.74.35,1.05.7,1.74,1.74,1.74,3.14,0,0,0,.7-.35,1.39-7.32,16.73-20.22,42.53-32.07,58.22-4.18,4.88-10.81,12.55-17.43,12.9h-5.23Z"/>
      <path class="cls-40" d="m912.9,1551.73c9.06,0,21.61,5.58,21.61,10.81l-.35,1.05c-3.14,6.97-6.28,14.64-9.41,23.01l17.43.35c2.09,0,3.49,1.74,3.49,3.49s-1.39,3.49-3.83,3.49c-5.93-.35-12.55-.35-19.87-.35-10.81,32.07-22.66,67.98-29.63,97.61-.7,2.09-3.83,16.38-3.83,22.66,0,2.44.35,3.14,1.39,3.14,3.83,0,10.46-8.37,12.9-11.5,10.81-14.64,23.36-40.44,30.33-55.43.7-1.74,1.74-2.09,3.14-2.09.35,0,1.04,0,1.74.35,1.05.7,1.74,1.74,1.74,3.14,0,0,0,.7-.35,1.39-7.32,16.73-20.22,42.53-32.07,58.22-4.18,4.88-10.81,12.55-17.43,12.9h-5.23c-8.37,0-16.38-1.05-19.52-8.37-1.74-3.83-2.79-9.41-2.79-15.69,0-27.19,14.29-72.51,27.19-107.37-6.97-.35-13.6-.35-19.17-.35-2.09-.35-3.49-2.09-3.49-3.49,0-1.74,1.39-3.49,3.49-3.49l21.61.35c4.53-11.85,8.72-21.96,12.2-29.63,1.05-3.14,4.53-4.18,8.71-4.18m0-2c-7.14,0-9.7,2.93-10.58,5.44-3.47,7.63-7.5,17.41-11.71,28.35l-20.21-.33c-3.06,0-5.52,2.46-5.52,5.49,0,2.54,2.31,4.99,5.16,5.46l.16.03h.17c4.94,0,10.46,0,16.35.23-21.76,59.33-26.37,90.09-26.37,105.49,0,6.44,1.05,12.3,2.97,16.51,3.6,8.4,12.81,9.54,21.34,9.54h5.33c7.53-.4,14.61-8.66,18.84-13.6l.04-.05.04-.05c11.67-15.44,24.68-41.2,32.29-58.58.51-1.05.53-2.04.53-2.24,0-1.97-.94-3.67-2.63-4.8l-.1-.07-.11-.06c-1.12-.56-2.18-.56-2.64-.56-1.56,0-3.77.34-4.97,3.29-8.18,17.59-20.04,41.39-30.09,55.02-6.29,8.08-9.36,10.1-10.67,10.58-.02-.24-.03-.57-.03-1,0-5.83,3.02-19.9,3.73-22.03l.03-.09.02-.09c6.84-29.07,18.57-64.72,29.12-96.07,6.61,0,12.84.02,18.32.35h.06s.06,0,.06,0c3.65,0,5.83-2.79,5.83-5.49,0-3.03-2.46-5.49-5.49-5.49l-14.56-.29c2.78-7.29,5.59-14.09,8.36-20.24l.04-.09.03-.1.35-1.05.1-.31v-.32c0-7.07-14.29-12.81-23.61-12.81h0Z"/>
    </g>
    <g>
      <path class="cls-2" d="m1164.25,1741.38c-33.12,0-42.88-49.15-48.11-77.39-7.67,25.1-18.13,62.05-18.13,73.56,0,1.74-1.39,3.49-3.49,3.49h-3.49c-8.37,0-17.43-1.39-19.17-9.06-.35-1.04-.35-2.44-.35-3.83,0-10.81,5.58-33.81,12.9-60.31,12.9-46.02,32.07-102.14,37.65-115.04,1.05-2.79,4.53-3.83,9.06-3.83,8.37,0,19.87,4.53,19.87,10.81l-.35,2.09c-3.49,8.71-16.38,45.32-28.59,84.01,2.09.7,4.18,1.05,6.62,1.05,23.01,0,48.11-32.42,56.82-64.49,1.39-4.88,2.09-9.76,2.09-14.64,0-13.6-6.97-25.1-27.89-27.89-5.23-.7-10.81-1.05-16.04-1.05-23.01,0-46.36,5.93-65.54,16.04-22.31,11.5-39.04,28.93-43.58,49.85-.35,2.09-1.39,3.14-3.49,3.14-.7,0-1.74,0-2.79-.7-3.83-1.74-8.37-6.97-12.2-17.08-1.74-4.53-3.14-10.81-3.14-16.38,0-5.23,1.39-10.11,4.88-13.25,32.07-27.54,71.12-37.3,111.9-37.3h4.18c46.02.35,79.83,19.17,79.83,54.38,0,10.81-3.14,22.66-9.76,36.25-12.9,26.15-37.65,48.46-64.84,51.25,4.53,17.78,12.2,33.12,21.61,43.58,8.72,9.76,19.17,15.69,29.28,15.69l4.18-.35c1.74,0,3.14,1.74,3.14,3.49,0,1.05-.7,2.44-2.09,3.14-6.97,4.18-19.17,9.76-27.54,10.81h-3.49Z"/>
      <path class="cls-39" d="m1133.92,1523.15c46.02.35,79.83,19.17,79.83,54.38,0,10.81-3.14,22.66-9.76,36.25-12.9,26.15-37.65,48.46-64.84,51.25,4.53,17.78,12.2,33.12,21.61,43.58,8.72,9.76,19.17,15.69,29.28,15.69l4.18-.35c1.74,0,3.14,1.74,3.14,3.49,0,1.05-.7,2.44-2.09,3.14-6.97,4.18-19.17,9.76-27.54,10.81h-3.49c-33.12,0-42.88-49.15-48.11-77.39-7.67,25.1-18.13,62.05-18.13,73.56,0,1.74-1.39,3.49-3.49,3.49h-3.49c-8.37,0-17.43-1.39-19.17-9.06-.35-1.04-.35-2.44-.35-3.83,0-10.81,5.58-33.81,12.9-60.31,12.9-46.02,32.07-102.14,37.65-115.04,1.05-2.79,4.53-3.83,9.06-3.83,8.37,0,19.87,4.53,19.87,10.81l-.35,2.09c-3.49,8.71-16.38,45.32-28.59,84.01,2.09.7,4.18,1.05,6.62,1.05,23.01,0,48.11-32.42,56.82-64.49,1.39-4.88,2.09-9.76,2.09-14.64,0-13.6-6.97-25.1-27.89-27.89-5.23-.7-10.81-1.05-16.04-1.05-23.01,0-46.36,5.93-65.54,16.04-22.31,11.5-39.04,28.93-43.58,49.85-.35,2.09-1.39,3.14-3.49,3.14-.7,0-1.74,0-2.79-.7-3.83-1.74-8.37-6.97-12.2-17.08-1.74-4.53-3.14-10.81-3.14-16.38,0-5.23,1.39-10.11,4.88-13.25,32.07-27.54,71.12-37.3,111.9-37.3h4.18m0-2h-4.19c-21.78,0-41.91,2.83-59.82,8.41-19.99,6.23-37.95,16.11-53.39,29.37-3.66,3.29-5.58,8.39-5.58,14.76,0,5.3,1.25,11.86,3.27,17.1,3.56,9.39,8.21,15.82,13.1,18.12,1.5.94,2.96.94,3.76.94,2.99,0,4.92-1.69,5.45-4.76,4.19-19.27,19.29-36.47,42.53-48.45,19.35-10.2,42.29-15.81,64.62-15.81,5.28,0,10.73.36,15.77,1.03,17.35,2.31,26.15,11.03,26.15,25.91,0,4.67-.68,9.41-2.01,14.09-4.26,15.68-12.52,31.54-22.66,43.53-10.64,12.58-22.09,19.51-32.24,19.51-1.45,0-2.79-.14-4.09-.42,12.07-38.12,24.53-73.43,27.91-81.9l.08-.2.04-.21.35-2.09.03-.16v-.17c0-3.66-2.81-7.06-7.92-9.55-4.17-2.04-9.38-3.25-13.95-3.25-5.95,0-9.62,1.71-10.92,5.08-5.44,12.6-24.62,68.5-37.72,115.25-8.97,32.47-12.97,51.24-12.97,60.85,0,1.49,0,3.04.42,4.37,2.47,10.53,16.49,10.53,21.1,10.53h3.49c3.03,0,5.49-2.46,5.49-5.49,0-11.06,10.11-46.49,15.68-65.16,2.4,12.21,6.08,28.29,12.22,41.72,8.88,19.43,21.11,29.27,36.33,29.27h3.61l.12-.02c9.11-1.14,21.86-7.21,28.26-11.04,2.16-1.12,3.12-3.25,3.12-4.89,0-2.97-2.35-5.49-5.14-5.49h-.17s-4.1.35-4.1.35c-9.25-.03-19.09-5.36-27.71-15.02-8.85-9.83-16.12-24.16-20.59-40.54,25.2-3.61,50.17-23.79,64.12-52.07,6.71-13.77,9.97-25.92,9.97-37.14,0-17.51-8.15-32.01-23.58-41.95-14.38-9.26-34.52-14.26-58.24-14.44h0Z"/>
    </g>
    <g>
      <path class="cls-2" d="m1242.34,1723.94c-29.63-1.05-40.44-18.48-40.44-40.44,0-10.81,2.44-22.31,6.62-33.47,8.37-22.31,26.84-49.15,52.29-49.15h1.39c13.25.35,24.05,6.97,24.05,20.22v.7c-.7,24.75-26.14,55.08-44.97,55.08-3.49,0-6.97-1.04-9.76-3.49-.7,4.18-1.39,8.71-1.39,13.25,0,13.25,3.83,26.84,15.34,29.28l3.83.35c2.09,0,4.88-.35,7.67-1.04,12.2-4.53,29.63-19.52,51.59-65.19.7-1.39,1.74-2.09,2.79-2.09.7,0,1.39.35,2.09.7,1.04.35,1.74,1.39,1.74,2.79,0,0,0,.7-.35,1.39-23.36,48.8-42.53,64.49-56.47,69.37-4.53,1.39-8.71,1.74-12.2,1.74h-3.83Zm32.07-101.1c0-2.09-.7-3.14-1.74-3.83-1.05-.7-1.74-.7-2.79-.7-8.02,0-19.17,14.64-22.66,19.52-5.23,8.02-9.76,17.08-12.55,25.45,1.39,1.04,3.14,1.39,4.88,1.39,14.99,0,34.86-30.68,34.86-41.83Z"/>
      <path class="cls-37" d="m1262.21,1600.89c13.25.35,24.05,6.97,24.05,20.22v.7c-.7,24.75-26.14,55.08-44.97,55.08-3.49,0-6.97-1.04-9.76-3.49-.7,4.18-1.39,8.71-1.39,13.25,0,13.25,3.83,26.84,15.34,29.28l3.83.35c2.09,0,4.88-.35,7.67-1.04,12.2-4.53,29.63-19.52,51.59-65.19.7-1.39,1.74-2.09,2.79-2.09.7,0,1.39.35,2.09.7,1.04.35,1.74,1.39,1.74,2.79,0,0,0,.7-.35,1.39-23.36,48.8-42.53,64.49-56.47,69.37-4.53,1.39-8.71,1.74-12.2,1.74h-3.83c-29.63-1.05-40.44-18.48-40.44-40.44,0-10.81,2.44-22.31,6.62-33.47,8.37-22.31,26.84-49.15,52.29-49.15h1.39m-22.66,63.8c14.99,0,34.86-30.68,34.86-41.83,0-2.09-.7-3.14-1.74-3.83-1.05-.7-1.74-.7-2.79-.7-8.02,0-19.17,14.64-22.66,19.52-5.23,8.02-9.76,17.08-12.55,25.45,1.39,1.04,3.14,1.39,4.88,1.39m22.69-65.8h-1.42c-12.16,0-23.61,5.67-34.02,16.85-8.15,8.75-15.3,20.68-20.15,33.6-4.42,11.78-6.75,23.59-6.75,34.17,0,26.4,15.05,41.47,42.37,42.44h.04s.04,0,.04,0h3.83c4.6,0,8.78-.6,12.79-1.83h.04s.04-.02.04-.02c19.34-6.77,38.19-29.79,57.62-70.4.52-1.03.55-2.06.55-2.26,0-2.16-1.16-3.96-2.96-4.63-.8-.4-1.76-.85-2.88-.85-1.87,0-3.58,1.2-4.58,3.2-17.62,36.65-34.57,58.23-50.4,64.17-2.44.6-4.97.95-6.99.96l-3.62-.33c-12.31-2.72-13.64-19.99-13.64-27.3,0-3.27.38-6.59.87-9.79,2.44,1.34,5.25,2.03,8.29,2.03,9.5,0,21.02-7.1,30.83-18.99,9.77-11.85,15.81-26.07,16.14-38.04v-.03s0-.03,0-.03v-.7c0-6.87-2.71-12.58-7.84-16.53-4.58-3.53-10.86-5.5-18.16-5.69h-.03Zm-13.36,40.08c9.84-13.76,17.46-18.65,21.01-18.65.94,0,1.14,0,1.68.36.34.23.85.57.85,2.17,0,5.09-4.8,15.14-11.41,23.9-7.53,9.98-15.55,15.94-21.46,15.94-.93,0-1.74-.12-2.43-.35,2.7-7.59,6.84-15.82,11.76-23.36h0Z"/>
    </g>
    <g>
      <path class="cls-2" d="m1358.43,1704.07c.7-25.45,20.22-81.92,20.57-86.11,0-1.04-.35-1.74-1.04-1.74-1.05,0-2.44,1.04-3.49,2.09-16.73,14.99-40.44,54.03-46.71,64.84-4.18,15.34-7.67,29.28-8.02,37.3,0,3.14-1.74,3.49-4.53,3.49h-1.74c-8.37,0-19.52-1.74-19.87-9.76,0-17.78,20.57-86.46,29.28-109.11,1.04-2.79,4.53-4.18,8.71-4.18,8.37,0,19.87,4.88,19.87,10.46l-.35,1.4c-2.79,6.62-14.29,41.13-15.34,43.92,5.23-7.67,11.16-16.38,17.43-24.4,10.46-13.59,25.1-31.37,39.74-31.37,8.71,0,16.04,5.23,16.04,14.64l-.35,4.18c-4.88,24.05-21.61,70.77-21.61,90.99,0,4.18.35,6.27,2.09,6.27,8.71-.7,14.99-12.2,39.39-66.93.7-1.39,1.74-2.09,2.79-2.09,2.09,0,3.83,1.39,3.83,3.49,0,.35,0,.7-.35,1.39-24.4,55.43-32.07,70.42-45.32,71.12l-9.76.35c-12.55,0-21.26-2.79-21.26-20.22Z"/>
      <path class="cls-32" d="m1392.94,1600.89c8.71,0,16.04,5.23,16.04,14.64l-.35,4.18c-4.88,24.05-21.61,70.77-21.61,90.99,0,4.18.35,6.27,2.09,6.27,8.71-.7,14.99-12.2,39.39-66.93.7-1.39,1.74-2.09,2.79-2.09,2.09,0,3.83,1.39,3.83,3.49,0,.35,0,.7-.35,1.39-24.4,55.43-32.07,70.42-45.32,71.12l-9.76.35c-12.55,0-21.26-2.79-21.26-20.22.7-25.45,20.22-81.92,20.57-86.11,0-1.04-.35-1.74-1.04-1.74-1.05,0-2.44,1.04-3.49,2.09-16.73,14.99-40.44,54.03-46.71,64.84-4.18,15.34-7.67,29.28-8.02,37.3,0,3.14-1.74,3.49-4.53,3.49h-1.74c-8.37,0-19.52-1.74-19.87-9.76,0-17.78,20.57-86.46,29.28-109.11,1.04-2.79,4.53-4.18,8.71-4.18,8.37,0,19.87,4.88,19.87,10.46l-.35,1.4c-2.79,6.62-14.29,41.13-15.34,43.92,5.23-7.67,11.16-16.38,17.43-24.4,10.46-13.59,25.1-31.37,39.74-31.37m0-2c-14.58,0-28.48,15.45-41.33,32.16-3.19,4.08-6.29,8.33-9.25,12.54,3.78-11.11,8.9-26.04,10.59-30.06l.06-.14.04-.15.35-1.4.06-.24v-.25c0-7.23-13.06-12.46-21.87-12.46-5.34,0-9.3,2.05-10.59,5.48-8.29,21.54-29.41,91.25-29.41,109.82v.09c.33,7.53,8.1,11.67,21.87,11.67h1.74c1.95,0,6.51,0,6.53-5.44.36-8.03,3.99-22.3,7.88-36.57,2.32-3.98,28.21-48.02,46.19-64.13l.04-.04.04-.04c.32-.32.61-.58.88-.79-.54,2.12-1.89,6.61-3.3,11.3-5.77,19.16-16.51,54.83-17.03,73.78v.03s0,.03,0,.03c0,18.44,9.3,22.22,23.26,22.22h.07s9.76-.35,9.76-.35c7.65-.4,13.28-4.88,20.11-15.98,6.45-10.48,14.14-27.18,26.95-56.28.5-1.01.54-1.66.54-2.24,0-3.13-2.51-5.49-5.83-5.49-1.87,0-3.58,1.2-4.58,3.2l-.02.04-.02.04c-22.77,51.08-29.79,64.67-37.33,65.71-.15-.45-.33-1.56-.33-4.24,0-12.46,6.75-36.09,12.7-56.93,3.63-12.69,7.05-24.68,8.87-33.66l.02-.11v-.12s.36-4.18.36-4.18v-.08s0-.08,0-.08c0-9.8-7.42-16.64-18.04-16.64h0Z"/>
    </g>
    <g>
      <path class="cls-2" d="m1441.75,1723.94c-8.37,0-16.38-1.05-19.52-8.37-1.74-3.83-2.79-9.41-2.79-15.69,0-27.19,14.29-72.51,27.19-107.37-6.97-.35-13.6-.35-19.17-.35-2.09-.35-3.49-2.09-3.49-3.49,0-1.74,1.39-3.49,3.49-3.49l21.61.35c4.53-11.85,8.72-21.96,12.2-29.63,1.05-3.14,4.53-4.18,8.71-4.18,9.06,0,21.61,5.58,21.61,10.81l-.35,1.05c-3.14,6.97-6.28,14.64-9.41,23.01l17.43.35c2.09,0,3.49,1.74,3.49,3.49s-1.39,3.49-3.83,3.49c-5.93-.35-12.55-.35-19.87-.35-10.81,32.07-22.66,67.98-29.63,97.61-.7,2.09-3.83,16.38-3.83,22.66,0,2.44.35,3.14,1.39,3.14,3.83,0,10.46-8.37,12.9-11.5,10.81-14.64,23.36-40.44,30.33-55.43.7-1.74,1.74-2.09,3.14-2.09.35,0,1.04,0,1.74.35,1.05.7,1.74,1.74,1.74,3.14,0,0,0,.7-.35,1.39-7.32,16.73-20.22,42.53-32.07,58.22-4.18,4.88-10.81,12.55-17.43,12.9h-5.23Z"/>
      <path class="cls-30" d="m1469.99,1551.73c9.06,0,21.61,5.58,21.61,10.81l-.35,1.05c-3.14,6.97-6.28,14.64-9.41,23.01l17.43.35c2.09,0,3.49,1.74,3.49,3.49s-1.39,3.49-3.83,3.49c-5.93-.35-12.55-.35-19.87-.35-10.81,32.07-22.66,67.98-29.63,97.61-.7,2.09-3.83,16.38-3.83,22.66,0,2.44.35,3.14,1.39,3.14,3.83,0,10.46-8.37,12.9-11.5,10.81-14.64,23.36-40.44,30.33-55.43.7-1.74,1.74-2.09,3.14-2.09.35,0,1.05,0,1.74.35,1.05.7,1.74,1.74,1.74,3.14,0,0,0,.7-.35,1.39-7.32,16.73-20.22,42.53-32.07,58.22-4.18,4.88-10.81,12.55-17.43,12.9h-5.23c-8.37,0-16.38-1.05-19.52-8.37-1.74-3.83-2.79-9.41-2.79-15.69,0-27.19,14.29-72.51,27.19-107.37-6.97-.35-13.6-.35-19.17-.35-2.09-.35-3.49-2.09-3.49-3.49,0-1.74,1.39-3.49,3.49-3.49l21.61.35c4.53-11.85,8.72-21.96,12.2-29.63,1.05-3.14,4.53-4.18,8.71-4.18m0-2c-7.14,0-9.7,2.93-10.58,5.44-3.47,7.63-7.5,17.41-11.71,28.35l-20.21-.33c-3.06,0-5.52,2.46-5.52,5.49,0,2.54,2.31,4.99,5.16,5.46l.16.03h.17c4.94,0,10.46,0,16.35.23-21.76,59.33-26.37,90.09-26.37,105.49,0,6.44,1.05,12.3,2.97,16.51,3.6,8.4,12.81,9.54,21.34,9.54h5.33c7.53-.4,14.61-8.66,18.84-13.6l.04-.05.04-.05c11.67-15.44,24.68-41.2,32.29-58.58.51-1.05.53-2.04.53-2.24,0-1.96-.94-3.67-2.63-4.8l-.1-.07-.11-.06c-1.12-.56-2.18-.56-2.64-.56-1.56,0-3.77.34-4.97,3.29-8.18,17.59-20.04,41.39-30.09,55.02-6.29,8.08-9.36,10.1-10.67,10.58-.02-.24-.03-.57-.03-1,0-5.83,3.02-19.9,3.73-22.03l.03-.09.02-.09c6.84-29.07,18.57-64.72,29.12-96.07,6.61,0,12.84.02,18.32.35h.06s.06,0,.06,0c3.65,0,5.83-2.79,5.83-5.49,0-3.03-2.46-5.49-5.49-5.49l-14.56-.29c2.78-7.29,5.59-14.09,8.36-20.24l.04-.09.03-.1.35-1.05.1-.31v-.32c0-7.07-14.29-12.81-23.61-12.81h0Z"/>
    </g>
    <g>
      <path class="cls-2" d="m1563.07,1723.94c-8.72,0-17.78-1.05-21.61-8.37-2.09-3.49-2.79-8.71-2.79-14.64,0-3.49.35-6.97.7-11.16-8.02,13.94-19.17,27.54-32.77,27.54h-.7c-16.73-.35-23.71-14.29-23.71-32.42,0-34.51,25.1-83.67,59.61-83.67h.35c9.06,0,16.38,3.14,20.57,9.76l2.44-6.28c1.74-2.79,4.88-3.83,9.06-3.83,8.02,0,18.82,4.88,18.82,10.46l-.35,1.4c-4.53,11.16-27.19,71.12-27.89,96.21,0,4.88.35,8.02,2.09,8.02,11.5-.35,33.47-44.97,43.58-66.93.7-1.74,1.74-2.09,3.14-2.09l1.74.35c1.05.35,1.74,1.39,1.74,2.79q0,.7-.35,1.74c-11.5,24.75-33.12,70.42-49.5,71.12h-4.18Zm-14.99-71.81c1.74-4.53,4.88-13.95,4.88-21.61,0-4.88-1.39-8.72-5.23-9.76l-2.09-.35c-15.69,0-35.56,47.41-35.56,67.98,0,5.93,1.74,9.41,5.23,9.41,10.46-.35,29.28-36.95,32.77-45.67Z"/>
      <path class="cls-33" d="m1574.23,1600.89c8.02,0,18.82,4.88,18.82,10.46l-.35,1.4c-4.53,11.16-27.19,71.12-27.89,96.21,0,4.88.35,8.02,2.09,8.02,11.5-.35,33.47-44.97,43.58-66.93.7-1.74,1.74-2.09,3.14-2.09l1.74.35c1.05.35,1.74,1.39,1.74,2.79q0,.7-.35,1.74c-11.5,24.75-33.12,70.42-49.5,71.12h-4.18c-8.72,0-17.78-1.05-21.61-8.37-2.09-3.49-2.79-8.71-2.79-14.64,0-3.49.35-6.97.7-11.16-8.02,13.94-19.17,27.54-32.77,27.54h-.7c-16.73-.35-23.71-14.29-23.71-32.42,0-34.51,25.1-83.67,59.61-83.67h.35c9.06,0,16.38,3.14,20.57,9.76l2.44-6.28c1.74-2.79,4.88-3.83,9.06-3.83m-58.92,96.91c10.46-.35,29.28-36.95,32.77-45.67,1.74-4.53,4.88-13.95,4.88-21.61,0-4.88-1.39-8.72-5.23-9.76l-2.09-.35c-15.69,0-35.56,47.41-35.56,67.98,0,5.93,1.74,9.41,5.23,9.41m58.92-98.91c-5.23,0-8.75,1.56-10.76,4.78l-.1.16-.07.18-1.15,2.95c-4.58-5.06-11.41-7.71-20-7.71h-.35c-16.39,0-32.17,10.59-44.43,29.82-10.6,16.61-17.18,38.01-17.18,55.85,0,21.53,9.35,34.08,25.66,34.42h.74c10.42,0,20.54-7.24,30.15-21.53-.05,1.06-.08,2.1-.08,3.15,0,7.06,1,12.17,3.05,15.62,4.37,8.27,14.26,9.39,23.36,9.39h4.27c15.82-.67,33.97-35.13,51.23-72.27l.05-.1.04-.11c.39-1.16.45-1.38.45-2.38,0-2.22-1.22-4.06-3.11-4.69l-.12-.04-.12-.02-1.74-.35-.19-.04h-.2c-1.56,0-3.77.34-4.97,3.3-5.2,11.29-13.08,27.61-21.15,41.35-11.94,20.33-17.87,23.88-20.19,24.32-.22-.6-.48-2.12-.49-5.94.68-24.04,22.4-82.34,27.74-95.49l.05-.13.03-.14.35-1.4.06-.24v-.25c0-3.37-2.66-6.6-7.49-9.1-4.07-2.1-9.05-3.36-13.34-3.36h0Zm-58.95,96.91c-2.78-.04-3.2-4.65-3.2-7.41,0-9.7,4.81-26.5,11.7-40.84,7.39-15.38,15.68-24.98,21.71-25.14l1.81.3c2.43.72,3.67,3.34,3.67,7.81,0,7.93-3.63,18-4.75,20.9-1.75,4.38-7.3,15.58-13.6,25.63-10.44,16.65-15.58,18.68-17.34,18.76h0Z"/>
    </g>
    <g>
      <path class="cls-2" d="m1623.38,1723.94c-8.37,0-16.38-1.05-19.87-8.37-1.74-3.83-2.44-9.06-2.44-14.99,0-42.53,35.91-131.77,41.48-144.67,1.74-2.79,5.23-4.18,9.41-4.18,9.06,0,20.57,5.93,20.57,10.81l-.35,1.05c-4.18,11.16-40.79,107.02-44.62,142.93l-.35,6.97c0,2.09,0,3.49.7,3.49h.7c4.53,0,11.16-9.06,13.25-11.85,10.81-14.99,22.66-40.44,29.63-55.08.7-1.74,1.74-2.09,3.14-2.09.35,0,1.04,0,1.74.35,1.05.7,1.74,1.74,1.74,2.79,0,.7,0,1.05-.35,1.74-7.32,16.04-18.83,40.44-30.68,56.13-3.83,5.58-11.5,14.64-18.83,14.99h-4.88Z"/>
      <path class="cls-31" d="m1651.97,1551.73c9.06,0,20.57,5.93,20.57,10.81l-.35,1.05c-4.18,11.16-40.79,107.02-44.62,142.93l-.35,6.97c0,2.09,0,3.49.7,3.49h.7c4.53,0,11.16-9.06,13.25-11.85,10.81-14.99,22.66-40.44,29.63-55.08.7-1.74,1.74-2.09,3.14-2.09.35,0,1.04,0,1.74.35,1.05.7,1.74,1.74,1.74,2.79,0,.7,0,1.05-.35,1.74-7.32,16.04-18.83,40.44-30.68,56.13-3.83,5.58-11.5,14.64-18.83,14.99h-4.88c-8.37,0-16.38-1.05-19.87-8.37-1.74-3.83-2.44-9.06-2.44-14.99,0-42.53,35.91-131.77,41.48-144.67,1.74-2.79,5.23-4.18,9.41-4.18m0-2c-5.1,0-9.04,1.82-11.11,5.12l-.08.13-.06.14c-.42.96-41.65,99.19-41.65,145.47,0,6.67.88,11.99,2.62,15.82,4,8.39,12.79,9.54,21.69,9.54h4.98c8.82-.42,17.15-11.17,20.35-15.82,11.42-15.12,22.49-38.1,30.86-56.44.54-1.1.54-1.83.54-2.6,0-1.69-.98-3.35-2.63-4.45l-.1-.07-.11-.06c-1.12-.56-2.18-.56-2.64-.56-1.56,0-3.76.34-4.97,3.29l-1.3,2.73c-7.2,15.15-18.08,38.05-28.12,51.98l-.2.26c-5.87,7.85-9.08,10.22-10.81,10.67-.01-.42-.01-.91-.01-1.35l.34-6.87c2.36-21.96,17.89-71.79,43.72-140.32l.77-2.06v-.03s.02-.03.02-.03l.35-1.05.1-.31v-.32c0-6.47-12.92-12.81-22.57-12.81h0Z"/>
    </g>
    <g>
      <path class="cls-2" d="m1686.48,1723.94c-20.57,0-30.33-13.25-30.33-28.24,0-8.02,2.79-16.38,8.02-23.71,1.74-2.44,4.53-3.49,7.32-3.49,8.02,0,18.13,7.32,18.13,12.2,0,.7-.35,1.74-1.39,2.44-5.58,4.53-10.46,16.73-10.46,24.05,0,2.79.7,4.53,2.09,5.58.7.7,1.39.7,2.09.7,2.09,0,4.53-1.74,6.28-3.83,4.88-6.27,6.27-14.99,6.27-24.75,0-16.73-4.18-36.25-4.18-51.59,0-2.44,0-4.88.35-7.32l-12.55,27.19c-.7,1.05-2.09,1.74-3.14,1.74-.7,0-1.04,0-1.74-.35-.7-.35-1.74-.7-1.74-2.44,0-.7,0-1.74.35-2.44,2.79-6.28,20.92-48.81,27.54-48.81h25.8c2.09,0,3.49,1.4,3.49,3.14,0,.7,0,1.74-.7,2.44-6.28,9.41-8.37,18.83-8.37,27.89,0,14.64,4.88,29.28,4.88,44.27,0,3.49-.35,6.97-1.05,10.46-1.74,8.02-3.83,14.29-6.97,19.17,4.53-4.88,11.85-14.29,17.43-22.66,5.93-9.41,12.55-20.92,19.52-35.91.7-1.39,1.74-1.74,3.14-1.74.35,0,1.04,0,1.74.35,1.05.7,1.74,1.74,1.74,3.14l-.35,1.39c-6.27,13.25-13.25,26.14-20.57,37.3-5.23,8.02-10.46,14.99-16.38,21.61-10.46,11.5-22.66,12.2-33.12,12.2h-3.14Z"/>
      <path class="cls-29" d="m1725.18,1600.89c2.09,0,3.49,1.4,3.49,3.14,0,.7,0,1.74-.7,2.44-6.28,9.41-8.37,18.83-8.37,27.89,0,14.64,4.88,29.28,4.88,44.27,0,3.49-.35,6.97-1.05,10.46-1.74,8.02-3.83,14.29-6.97,19.17,4.53-4.88,11.85-14.29,17.43-22.66,5.93-9.41,12.55-20.92,19.52-35.91.7-1.39,1.74-1.74,3.14-1.74.35,0,1.04,0,1.74.35,1.05.7,1.74,1.74,1.74,3.14l-.35,1.39c-6.27,13.25-13.25,26.14-20.57,37.3-5.23,8.02-10.46,14.99-16.38,21.61-10.46,11.5-22.66,12.2-33.12,12.2h-3.14c-20.57,0-30.33-13.25-30.33-28.24,0-8.02,2.79-16.38,8.02-23.71,1.74-2.44,4.53-3.49,7.32-3.49,8.02,0,18.13,7.32,18.13,12.2,0,.7-.35,1.74-1.39,2.44-5.58,4.53-10.46,16.73-10.46,24.05,0,2.79.7,4.53,2.09,5.58.7.7,1.39.7,2.09.7,2.09,0,4.53-1.74,6.28-3.83,4.88-6.27,6.27-14.99,6.27-24.75,0-16.73-4.18-36.25-4.18-51.59,0-2.44,0-4.88.35-7.32l-12.55,27.19c-.7,1.05-2.09,1.74-3.14,1.74-.7,0-1.04,0-1.74-.35-.7-.35-1.74-.7-1.74-2.44,0-.7,0-1.74.35-2.44,2.79-6.28,20.92-48.81,27.54-48.81h25.8m0-2h-25.8c-2.68,0-6.45,2.51-15.76,20.71-5.38,10.51-10.57,22.36-12.79,27.42-.33.76-.6,1.38-.8,1.82-.54,1.11-.54,2.42-.54,3.29,0,2.86,1.96,3.8,2.7,4.16l.15.07c1.12.56,1.85.56,2.63.56,1.79,0,3.77-1.08,4.8-2.63l.09-.13.07-.14,8.42-18.24c.18,6.95,1.07,14.51,2,22.46,1.05,8.96,2.15,18.23,2.15,26.67,0,10.9-1.85,18.36-5.83,23.5-1.53,1.82-3.46,3.09-4.72,3.09-.57,0-.58-.01-.68-.11l-.1-.1-.11-.09c-.55-.42-1.29-1.28-1.29-3.98,0-6.55,4.45-18.16,9.66-22.45,1.62-1.12,2.19-2.82,2.19-4.04,0-6.24-11.29-14.2-20.13-14.2-3.72,0-6.99,1.58-8.95,4.32-5.41,7.57-8.39,16.41-8.39,24.87s2.85,15.78,8.01,21.13c5.76,5.96,14.17,9.11,24.32,9.11h3.14c11.08,0,23.81-.99,34.6-12.86,5.84-6.53,11.11-13.47,16.58-21.87,6.97-10.61,13.93-23.25,20.7-37.54l.08-.18.05-.19.35-1.39.06-.24v-.25c0-1.96-.94-3.67-2.63-4.8l-.1-.07-.11-.06c-1.12-.56-2.18-.56-2.64-.56-.87,0-3.5,0-4.93,2.85v.03s-.02.03-.02.03c-5.91,12.71-12.07,24.04-19.39,35.66-2.56,3.83-5.57,8.02-8.54,11.9.6-2.1,1.17-4.39,1.72-6.9.73-3.63,1.09-7.28,1.09-10.88,0-7.7-1.27-15.34-2.49-22.72-1.23-7.42-2.39-14.44-2.39-21.55,0-9.86,2.6-18.58,7.94-26.64,1.12-1.26,1.12-2.89,1.12-3.69,0-2.93-2.36-5.14-5.49-5.14h0Z"/>
    </g>
  </g>
</svg>